<svg width="12" height="12" viewBox="0 0 12 12" fill="none" xmlns="http://www.w3.org/2000/svg">
<path d="M5.99908 0L6.06997 0.00419998L6.10541 0.00900006L6.14206 0.0168001L6.20875 0.0372C6.2548 0.0541579 6.29859 0.0767285 6.33911 0.1044L6.40159 0.1536L6.55479 0.2844C7.76672 1.28974 9.29841 1.82958 10.8737 1.8066L11.0792 1.8006C11.2135 1.79448 11.346 1.83354 11.4555 1.91154C11.5649 1.98953 11.645 2.10195 11.6829 2.2308C11.9782 3.23374 12.0685 4.28572 11.9486 5.32423C11.8287 6.36273 11.501 7.36657 10.9849 8.27608C10.4689 9.1856 9.77507 9.98224 8.94468 10.6187C8.11428 11.2551 7.16426 11.7183 6.15107 11.9808C6.05218 12.0064 5.94838 12.0064 5.84949 11.9808C4.83624 11.7184 3.88616 11.2552 3.0557 10.6188C2.22523 9.98241 1.53134 9.18578 1.01524 8.27625C0.49915 7.36673 0.171391 6.36287 0.0514447 5.32434C-0.0685021 4.2858 0.0218111 3.23378 0.317017 2.2308C0.354932 2.10195 0.435032 1.98953 0.544496 1.91154C0.653961 1.83354 0.786461 1.79448 0.920789 1.8006C2.56537 1.87568 4.17879 1.33499 5.44517 0.2844L5.60317 0.1494L5.66085 0.1044C5.70137 0.0767285 5.74515 0.0541579 5.79121 0.0372L5.8585 0.0168001C5.88204 0.0111202 5.90592 0.006912 5.92999 0.00419998L5.99908 0ZM6.00028 4.2C5.69715 4.1999 5.40518 4.31424 5.18291 4.5201C4.96063 4.72595 4.82448 5.0081 4.80175 5.31L4.79874 5.4L4.80175 5.49C4.81656 5.68476 4.87875 5.87297 4.98292 6.03828C5.0871 6.20359 5.2301 6.34101 5.39951 6.4386V7.5L5.40372 7.57019C5.4218 7.72205 5.49727 7.86128 5.61469 7.95944C5.73211 8.05759 5.88263 8.10726 6.03549 8.0983C6.18835 8.08934 6.33201 8.02242 6.43713 7.91122C6.54224 7.80001 6.60088 7.65292 6.60105 7.5L6.60165 6.4392C6.83074 6.30708 7.00977 6.10315 7.11097 5.85905C7.21217 5.61494 7.22988 5.3443 7.16134 5.08912C7.09281 4.83394 6.94187 4.60848 6.73194 4.44771C6.52201 4.28695 6.26482 4.19988 6.00028 4.2Z" fill="white"/>
</svg>
