<svg width="12" height="12" viewBox="0 0 12 12" fill="none" xmlns="http://www.w3.org/2000/svg">
<path d="M9.27148 0.206257C9.37579 0.0862677 9.52345 0.0126126 9.68201 0.00147471C9.84057 -0.00966316 9.99707 0.0426271 10.1171 0.146857C10.8927 0.820466 11.5159 1.65174 11.9451 2.58526C12.0116 2.72991 12.0179 2.89505 11.9627 3.04437C11.9075 3.19369 11.7952 3.31494 11.6507 3.38146C11.5061 3.44797 11.341 3.4543 11.1917 3.39906C11.0425 3.34381 10.9213 3.23151 10.8548 3.08686C10.4972 2.30828 9.97791 1.61488 9.33146 1.05286C9.21143 0.948585 9.1377 0.800908 9.12645 0.642275C9.1152 0.483642 9.16737 0.326432 9.27148 0.206257Z" fill="white"/>
<path d="M1.88557 0.147109C2.00567 0.0427202 2.16229 -0.00966676 2.32099 0.0014729C2.47969 0.0126126 2.62746 0.0863665 2.73181 0.20651C2.83615 0.326653 2.88851 0.483343 2.87738 0.642112C2.86625 0.80088 2.79252 0.94872 2.67243 1.05311C2.02597 1.61513 1.50666 2.30853 1.14909 3.08711C1.11713 3.16011 1.07095 3.22601 1.01325 3.28096C0.955552 3.33591 0.887486 3.37881 0.81303 3.40716C0.738575 3.4355 0.659221 3.44872 0.579602 3.44605C0.499983 3.44337 0.421694 3.42485 0.349308 3.39157C0.276922 3.35829 0.211888 3.31092 0.158004 3.25222C0.104121 3.19352 0.0624667 3.12466 0.0354747 3.04968C0.00848266 2.97469 -0.00330645 2.89508 0.00079567 2.81549C0.00489779 2.7359 0.024809 2.65792 0.0593666 2.58611C0.487981 1.65254 1.11054 0.821073 1.88557 0.147109Z" fill="white"/>
<path d="M7.34263 10.2C7.8614 10.2 8.13548 10.8144 7.78943 11.2008C7.56463 11.4525 7.28921 11.6538 6.9812 11.7915C6.6732 11.9292 6.33958 12.0003 6.00221 12C5.66484 12.0003 5.33122 11.9292 5.02322 11.7915C4.71521 11.6538 4.43979 11.4525 4.21499 11.2008C3.88393 10.8312 4.12023 10.2534 4.59522 10.2042L4.66119 10.2006L7.34263 10.2Z" fill="white"/>
<path d="M6.0022 0C6.81664 0 7.50515 0.5418 7.72645 1.2846L7.75404 1.3872L7.75884 1.413C8.41998 1.78614 8.98337 2.31066 9.40285 2.9436C9.82233 3.57654 10.086 4.29989 10.1722 5.0544L10.189 5.2266L10.2004 5.4V7.1586L10.213 7.2402C10.2951 7.68229 10.5396 8.07763 10.8985 8.3484L10.9986 8.4186L11.0958 8.478C11.6116 8.7702 11.4316 9.5376 10.8697 9.5964L10.8001 9.6H1.20428C0.587747 9.6 0.372441 8.7816 0.908608 8.478C1.13713 8.34862 1.33457 8.17077 1.48708 7.95694C1.63959 7.74311 1.74347 7.49847 1.79142 7.2402L1.80402 7.1544L1.80462 5.3724C1.84119 4.58873 2.0692 3.82597 2.4687 3.15088C2.8682 2.47579 3.42702 1.90896 4.09622 1.5L4.24496 1.4124L4.25096 1.3866C4.33579 1.02782 4.5286 0.703702 4.80337 0.458002C5.07813 0.212301 5.42163 0.0568407 5.78749 0.0125999L5.89664 0.00239997L6.0022 0Z" fill="white"/>
<path d="M9.27148 0.206257C9.37579 0.0862677 9.52345 0.0126126 9.68201 0.00147471C9.84057 -0.00966316 9.99707 0.0426271 10.1171 0.146857C10.8927 0.820466 11.5159 1.65174 11.9451 2.58526C12.0116 2.72991 12.0179 2.89505 11.9627 3.04437C11.9075 3.19369 11.7952 3.31494 11.6507 3.38146C11.5061 3.44797 11.341 3.4543 11.1917 3.39906C11.0425 3.34381 10.9213 3.23151 10.8548 3.08686C10.4972 2.30828 9.97791 1.61488 9.33146 1.05286C9.21143 0.948585 9.1377 0.800908 9.12645 0.642275C9.1152 0.483642 9.16737 0.326432 9.27148 0.206257Z" stroke="black"/>
<path d="M1.88557 0.147109C2.00567 0.0427202 2.16229 -0.00966676 2.32099 0.0014729C2.47969 0.0126126 2.62746 0.0863665 2.73181 0.20651C2.83615 0.326653 2.88851 0.483343 2.87738 0.642112C2.86625 0.80088 2.79252 0.94872 2.67243 1.05311C2.02597 1.61513 1.50666 2.30853 1.14909 3.08711C1.11713 3.16011 1.07095 3.22601 1.01325 3.28096C0.955552 3.33591 0.887486 3.37881 0.81303 3.40716C0.738575 3.4355 0.659221 3.44872 0.579602 3.44605C0.499983 3.44337 0.421694 3.42485 0.349308 3.39157C0.276922 3.35829 0.211888 3.31092 0.158004 3.25222C0.104121 3.19352 0.0624667 3.12466 0.0354747 3.04968C0.00848266 2.97469 -0.00330645 2.89508 0.00079567 2.81549C0.00489779 2.7359 0.024809 2.65792 0.0593666 2.58611C0.487981 1.65254 1.11054 0.821073 1.88557 0.147109Z" stroke="black"/>
<path d="M7.34263 10.2C7.8614 10.2 8.13548 10.8144 7.78943 11.2008C7.56463 11.4525 7.28921 11.6538 6.9812 11.7915C6.6732 11.9292 6.33958 12.0003 6.00221 12C5.66484 12.0003 5.33122 11.9292 5.02322 11.7915C4.71521 11.6538 4.43979 11.4525 4.21499 11.2008C3.88393 10.8312 4.12023 10.2534 4.59522 10.2042L4.66119 10.2006L7.34263 10.2Z" stroke="black"/>
<path d="M6.0022 0C6.81664 0 7.50515 0.5418 7.72645 1.2846L7.75404 1.3872L7.75884 1.413C8.41998 1.78614 8.98337 2.31066 9.40285 2.9436C9.82233 3.57654 10.086 4.29989 10.1722 5.0544L10.189 5.2266L10.2004 5.4V7.1586L10.213 7.2402C10.2951 7.68229 10.5396 8.07763 10.8985 8.3484L10.9986 8.4186L11.0958 8.478C11.6116 8.7702 11.4316 9.5376 10.8697 9.5964L10.8001 9.6H1.20428C0.587747 9.6 0.372441 8.7816 0.908608 8.478C1.13713 8.34862 1.33457 8.17077 1.48708 7.95694C1.63959 7.74311 1.74347 7.49847 1.79142 7.2402L1.80402 7.1544L1.80462 5.3724C1.84119 4.58873 2.0692 3.82597 2.4687 3.15088C2.8682 2.47579 3.42702 1.90896 4.09622 1.5L4.24496 1.4124L4.25096 1.3866C4.33579 1.02782 4.5286 0.703702 4.80337 0.458002C5.07813 0.212301 5.42163 0.0568407 5.78749 0.0125999L5.89664 0.00239997L6.0022 0Z" stroke="black"/>
</svg>
