<svg width="16" height="19" viewBox="0 0 16 19" fill="none" xmlns="http://www.w3.org/2000/svg">
<path d="M4.57143 0C5.20357 0 5.71429 0.530664 5.71429 1.1875V2.375H10.2857V1.1875C10.2857 0.530664 10.7964 0 11.4286 0C12.0607 0 12.5714 0.530664 12.5714 1.1875V2.375H14.2857C15.2321 2.375 16 3.17285 16 4.15625V5.9375H0V4.15625C0 3.17285 0.767857 2.375 1.71429 2.375H3.42857V1.1875C3.42857 0.530664 3.93929 0 4.57143 0ZM0 7.125H16V17.2188C16 18.2021 15.2321 19 14.2857 19H1.71429C0.767857 19 0 18.2021 0 17.2188V7.125ZM2.28571 10.0938V11.2812C2.28571 11.6078 2.54286 11.875 2.85714 11.875H4C4.31429 11.875 4.57143 11.6078 4.57143 11.2812V10.0938C4.57143 9.76719 4.31429 9.5 4 9.5H2.85714C2.54286 9.5 2.28571 9.76719 2.28571 10.0938ZM6.85714 10.0938V11.2812C6.85714 11.6078 7.11429 11.875 7.42857 11.875H8.57143C8.88571 11.875 9.14286 11.6078 9.14286 11.2812V10.0938C9.14286 9.76719 8.88571 9.5 8.57143 9.5H7.42857C7.11429 9.5 6.85714 9.76719 6.85714 10.0938ZM12 9.5C11.6857 9.5 11.4286 9.76719 11.4286 10.0938V11.2812C11.4286 11.6078 11.6857 11.875 12 11.875H13.1429C13.4571 11.875 13.7143 11.6078 13.7143 11.2812V10.0938C13.7143 9.76719 13.4571 9.5 13.1429 9.5H12ZM2.28571 14.8438V16.0312C2.28571 16.3578 2.54286 16.625 2.85714 16.625H4C4.31429 16.625 4.57143 16.3578 4.57143 16.0312V14.8438C4.57143 14.5172 4.31429 14.25 4 14.25H2.85714C2.54286 14.25 2.28571 14.5172 2.28571 14.8438ZM7.42857 14.25C7.11429 14.25 6.85714 14.5172 6.85714 14.8438V16.0312C6.85714 16.3578 7.11429 16.625 7.42857 16.625H8.57143C8.88571 16.625 9.14286 16.3578 9.14286 16.0312V14.8438C9.14286 14.5172 8.88571 14.25 8.57143 14.25H7.42857ZM11.4286 14.8438V16.0312C11.4286 16.3578 11.6857 16.625 12 16.625H13.1429C13.4571 16.625 13.7143 16.3578 13.7143 16.0312V14.8438C13.7143 14.5172 13.4571 14.25 13.1429 14.25H12C11.6857 14.25 11.4286 14.5172 11.4286 14.8438Z" fill="#00F1C7"/>
</svg>
