<svg width="24" height="27" viewBox="0 0 24 27" fill="none" xmlns="http://www.w3.org/2000/svg">
<path d="M13.2884 1.26562C13.2884 0.564258 12.7152 0 12.0027 0C11.2902 0 10.717 0.564258 10.717 1.26562V5.48438C10.717 6.18574 11.2902 6.75 12.0027 6.75C12.7152 6.75 13.2884 6.18574 13.2884 5.48438V1.26562ZM8.24196 11.8125H15.7634C16.1277 11.8125 16.4491 12.0393 16.5723 12.3715L17.5902 15.1875H6.41518L7.43839 12.3715C7.56161 12.034 7.88304 11.8125 8.24732 11.8125H8.24196ZM4.20804 11.2377L2.69196 15.4195C1.61518 15.8678 0.859821 16.9172 0.859821 18.1406V20.25V23.625V25.3125C0.859821 26.2459 1.62589 27 2.57411 27H3.43125C4.37946 27 5.14554 26.2459 5.14554 25.3125V23.625H18.8598V25.3125C18.8598 26.2459 19.6259 27 20.5741 27H21.4312C22.3795 27 23.1455 26.2459 23.1455 25.3125V23.625V20.25V18.1406C23.1455 16.9172 22.3902 15.8678 21.3134 15.4195L19.7973 11.2377C19.1866 9.56074 17.5741 8.4375 15.7634 8.4375H8.24196C6.43125 8.4375 4.81339 9.56074 4.20804 11.2377ZM5.14554 18.1406C5.48653 18.1406 5.81356 18.274 6.05467 18.5113C6.29579 18.7487 6.43125 19.0706 6.43125 19.4062C6.43125 19.7419 6.29579 20.0638 6.05467 20.3012C5.81356 20.5385 5.48653 20.6719 5.14554 20.6719C4.80454 20.6719 4.47752 20.5385 4.2364 20.3012C3.99528 20.0638 3.85982 19.7419 3.85982 19.4062C3.85982 19.0706 3.99528 18.7487 4.2364 18.5113C4.47752 18.274 4.80454 18.1406 5.14554 18.1406ZM17.5741 19.4062C17.5741 19.0706 17.7096 18.7487 17.9507 18.5113C18.1918 18.274 18.5188 18.1406 18.8598 18.1406C19.2008 18.1406 19.5278 18.274 19.769 18.5113C20.0101 18.7487 20.1455 19.0706 20.1455 19.4062C20.1455 19.7419 20.0101 20.0638 19.769 20.3012C19.5278 20.5385 19.2008 20.6719 18.8598 20.6719C18.5188 20.6719 18.1918 20.5385 17.9507 20.3012C17.7096 20.0638 17.5741 19.7419 17.5741 19.4062ZM0.377679 2.05664C-0.125893 2.55234 -0.125893 3.35391 0.377679 3.84434L2.94911 6.37559C3.45268 6.87129 4.26696 6.87129 4.76518 6.37559C5.26339 5.87988 5.26875 5.07832 4.76518 4.58789L2.19911 2.05664C1.69554 1.56094 0.88125 1.56094 0.383036 2.05664H0.377679ZM21.8062 2.05664L19.2348 4.58789C18.7312 5.08359 18.7312 5.88516 19.2348 6.37559C19.7384 6.86602 20.5527 6.87129 21.0509 6.37559L23.6223 3.84434C24.1259 3.34863 24.1259 2.54707 23.6223 2.05664C23.1187 1.56621 22.3045 1.56094 21.8062 2.05664Z" fill="white"/>
</svg>
