<svg width="24" height="18" viewBox="0 0 24 18" fill="none" xmlns="http://www.w3.org/2000/svg">
<path d="M23.4369 5.25H20.6305L19.8505 3.3C19.0489 1.29516 17.1359 0 14.9764 0H9.02328C6.86421 0 4.95077 1.29516 4.14874 3.3L3.36874 5.25H0.562799C0.196705 5.25 -0.0718893 5.59406 0.0171733 5.94891L0.298424 7.07391C0.360768 7.32422 0.585768 7.5 0.844049 7.5H1.78483C1.1553 8.04984 0.749831 8.84906 0.749831 9.75V12C0.749831 12.7556 1.03858 13.4377 1.49983 13.9655V16.5C1.49983 17.3283 2.17155 18 2.99983 18H4.49984C5.32812 18 5.99984 17.3283 5.99984 16.5V15H17.9999V16.5C17.9999 17.3283 18.6716 18 19.4999 18H20.9999C21.8281 18 22.4999 17.3283 22.4999 16.5V13.9655C22.9611 13.4381 23.2499 12.7561 23.2499 12V9.75C23.2499 8.84906 22.8444 8.04984 22.2153 7.5H23.1561C23.4144 7.5 23.6394 7.32422 23.7017 7.07391L23.983 5.94891C24.0716 5.59406 23.803 5.25 23.4369 5.25ZM6.93406 4.41422C7.27578 3.56016 8.10312 3 9.02328 3H14.9764C15.8966 3 16.7239 3.56016 17.0656 4.41422L17.9999 6.75H5.99984L6.93406 4.41422ZM4.49984 11.9906C3.59983 11.9906 2.99983 11.3925 2.99983 10.4953C2.99983 9.59812 3.59983 9 4.49984 9C5.39984 9 6.74984 10.3458 6.74984 11.243C6.74984 12.1402 5.39984 11.9906 4.49984 11.9906ZM19.4999 11.9906C18.5999 11.9906 17.2499 12.1402 17.2499 11.243C17.2499 10.3458 18.5999 9 19.4999 9C20.3999 9 20.9999 9.59812 20.9999 10.4953C20.9999 11.3925 20.3999 11.9906 19.4999 11.9906Z" fill="#00F1C7"/>
</svg>
