<svg width="30" height="34" viewBox="0 0 30 34" fill="none" xmlns="http://www.w3.org/2000/svg">
<path d="M15 17C19.7344 17 23.5714 13.1949 23.5714 8.5C23.5714 3.80508 19.7344 0 15 0C10.2656 0 6.42857 3.80508 6.42857 8.5C6.42857 13.1949 10.2656 17 15 17ZM21.4152 19.1648L18.2143 31.875L16.0714 22.8438L18.2143 19.125H11.7857L13.9286 22.8438L11.7857 31.875L8.58482 19.1648C3.81027 19.3906 0 23.2621 0 28.05V30.8125C0 32.5723 1.43973 34 3.21429 34H26.7857C28.5603 34 30 32.5723 30 30.8125V28.05C30 23.2621 26.1897 19.3906 21.4152 19.1648Z" fill="white"/>
</svg>
