<svg width="45" height="35" viewBox="0 0 45 35" fill="none" xmlns="http://www.w3.org/2000/svg">
<path d="M34.875 15.3125C29.2788 15.3125 24.75 19.7155 24.75 25.1562C24.75 30.597 29.2788 35 34.875 35C40.4712 35 45 30.597 45 25.1562C45 19.7155 40.4712 15.3125 34.875 15.3125ZM39.375 25.5862C39.375 25.9513 39.0677 26.25 38.6923 26.25H34.4334C34.058 26.25 33.7507 25.9513 33.7507 25.5862V20.352C33.7507 19.9869 34.058 19.6882 34.4334 19.6882H35.3173C35.6927 19.6882 36 19.9869 36 20.352V24.0625H38.6923C39.0677 24.0625 39.375 24.3612 39.375 24.7263V25.5862ZM34.875 13.125C35.2547 13.125 35.6287 13.1476 36 13.1804V9.84375C36 8.09375 34.425 6.5625 32.625 6.5625H27V3.28125C27 1.53125 25.425 0 23.625 0H12.375C10.575 0 9 1.53125 9 3.28125V6.5625H3.375C1.575 6.5625 0 8.09375 0 9.84375V15.3125H27.7819C29.7928 13.9392 32.2362 13.125 34.875 13.125ZM22.5 6.5625H13.5V4.375H22.5V6.5625ZM22.9795 21.875H14.625C14.0034 21.875 13.5 21.3855 13.5 20.7812V17.5H0V27.3438C0 29.0938 1.575 30.625 3.375 30.625H23.8662C22.9992 28.9816 22.5 27.1264 22.5 25.1562C22.5 24.0174 22.6744 22.9195 22.9795 21.875Z" fill="white"/>
</svg>
