<svg width="14" height="18" viewBox="0 0 14 18" fill="none" xmlns="http://www.w3.org/2000/svg">
<path d="M2.33333 1.6875C2.0125 1.6875 1.75 1.94062 1.75 2.25V15.75C1.75 16.0594 2.0125 16.3125 2.33333 16.3125H5.25V14.0625C5.25 13.1309 6.03385 12.375 7 12.375C7.96615 12.375 8.75 13.1309 8.75 14.0625V16.3125H11.6667C11.9875 16.3125 12.25 16.0594 12.25 15.75V2.25C12.25 1.94062 11.9875 1.6875 11.6667 1.6875H2.33333ZM0 2.25C0 1.00898 1.04635 0 2.33333 0H11.6667C12.9536 0 14 1.00898 14 2.25V15.75C14 16.991 12.9536 18 11.6667 18H2.33333C1.04635 18 0 16.991 0 15.75V2.25ZM3.20833 3.65625C3.20833 3.34687 3.47083 3.09375 3.79167 3.09375H5.54167C5.8625 3.09375 6.125 3.34687 6.125 3.65625V5.34375C6.125 5.65312 5.8625 5.90625 5.54167 5.90625H3.79167C3.47083 5.90625 3.20833 5.65312 3.20833 5.34375V3.65625ZM8.45833 3.09375H10.2083C10.5292 3.09375 10.7917 3.34687 10.7917 3.65625V5.34375C10.7917 5.65312 10.5292 5.90625 10.2083 5.90625H8.45833C8.1375 5.90625 7.875 5.65312 7.875 5.34375V3.65625C7.875 3.34687 8.1375 3.09375 8.45833 3.09375ZM3.20833 8.15625C3.20833 7.84688 3.47083 7.59375 3.79167 7.59375H5.54167C5.8625 7.59375 6.125 7.84688 6.125 8.15625V9.84375C6.125 10.1531 5.8625 10.4062 5.54167 10.4062H3.79167C3.47083 10.4062 3.20833 10.1531 3.20833 9.84375V8.15625ZM8.45833 7.59375H10.2083C10.5292 7.59375 10.7917 7.84688 10.7917 8.15625V9.84375C10.7917 10.1531 10.5292 10.4062 10.2083 10.4062H8.45833C8.1375 10.4062 7.875 10.1531 7.875 9.84375V8.15625C7.875 7.84688 8.1375 7.59375 8.45833 7.59375Z" fill="#A1A2A1"/>
</svg>
