<svg width="35" height="35" viewBox="0 0 35 35" fill="none" xmlns="http://www.w3.org/2000/svg">
<path d="M34.2564 27.0472L26.252 19.0431C24.6729 17.4641 22.3147 17.1565 20.4144 18.093L13.1277 10.8066V6.56186L4.37817 0L0.00341773 4.37457L6.56555 13.1237H10.8104L18.0971 20.4101C17.1675 22.3103 17.4683 24.6685 19.0473 26.2474L27.0517 34.2515C28.0497 35.2495 29.6629 35.2495 30.6541 34.2515L34.2564 30.6493C35.2475 29.6514 35.2475 28.0383 34.2564 27.0472ZM22.677 15.3794C24.6114 15.3794 26.4297 16.1312 27.7968 17.4983L29.1229 18.8243C30.2029 18.3527 31.2282 17.6965 32.1169 16.8079C34.6529 14.272 35.5141 10.704 34.7075 7.46411C34.5572 6.84894 33.7847 6.63705 33.3336 7.08817L28.2479 12.1736L23.6066 11.4012L22.8342 6.76008L27.9198 1.67464C28.371 1.22351 28.1522 0.451128 27.5302 0.293917C24.2902 -0.50581 20.722 0.355434 18.1928 2.88448C16.2447 4.83254 15.3287 7.4026 15.3766 9.96582L20.9886 15.5776C21.5423 15.4477 22.1164 15.3794 22.677 15.3794ZM15.5748 20.9843L11.6991 17.1087L1.28167 27.5325C-0.427222 29.2413 -0.427222 32.0096 1.28167 33.7184C2.99056 35.4272 5.75896 35.4272 7.46785 33.7184L15.9166 25.27C15.3971 23.9098 15.2399 22.4265 15.5748 20.9843ZM4.37817 32.2625C3.47588 32.2625 2.73764 31.5243 2.73764 30.622C2.73764 29.7129 3.46905 28.9815 4.37817 28.9815C5.2873 28.9815 6.01871 29.7129 6.01871 30.622C6.01871 31.5243 5.2873 32.2625 4.37817 32.2625Z" fill="white"/>
</svg>
