<!-- <svg width="11" height="12" viewBox="0 0 11 12" fill="none" xmlns="http://www.w3.org/2000/svg">
<path d="M0.785714 10.875C0.785714 11.1734 0.909885 11.4595 1.13091 11.6705C1.35193 11.8815 1.65171 12 1.96429 12H9.03571C9.34829 12 9.64806 11.8815 9.86909 11.6705C10.0901 11.4595 10.2143 11.1734 10.2143 10.875V3H0.785714V10.875ZM7.46429 4.875C7.46429 4.77555 7.50568 4.68016 7.57935 4.60984C7.65303 4.53951 7.75295 4.5 7.85714 4.5C7.96133 4.5 8.06126 4.53951 8.13494 4.60984C8.20861 4.68016 8.25 4.77555 8.25 4.875V10.125C8.25 10.2245 8.20861 10.3198 8.13494 10.3902C8.06126 10.4605 7.96133 10.5 7.85714 10.5C7.75295 10.5 7.65303 10.4605 7.57935 10.3902C7.50568 10.3198 7.46429 10.2245 7.46429 10.125V4.875ZM5.10714 4.875C5.10714 4.77555 5.14853 4.68016 5.22221 4.60984C5.29588 4.53951 5.39581 4.5 5.5 4.5C5.60419 4.5 5.70412 4.53951 5.77779 4.60984C5.85147 4.68016 5.89286 4.77555 5.89286 4.875V10.125C5.89286 10.2245 5.85147 10.3198 5.77779 10.3902C5.70412 10.4605 5.60419 10.5 5.5 10.5C5.39581 10.5 5.29588 10.4605 5.22221 10.3902C5.14853 10.3198 5.10714 10.2245 5.10714 10.125V4.875ZM2.75 4.875C2.75 4.77555 2.79139 4.68016 2.86507 4.60984C2.93874 4.53951 3.03866 4.5 3.14286 4.5C3.24705 4.5 3.34697 4.53951 3.42065 4.60984C3.49432 4.68016 3.53571 4.77555 3.53571 4.875V10.125C3.53571 10.2245 3.49432 10.3198 3.42065 10.3902C3.34697 10.4605 3.24705 10.5 3.14286 10.5C3.03866 10.5 2.93874 10.4605 2.86507 10.3902C2.79139 10.3198 2.75 10.2245 2.75 10.125V4.875ZM10.6071 0.750004H7.66071L7.42991 0.311723C7.38102 0.218023 7.30571 0.139205 7.21244 0.084135C7.11918 0.0290653 7.01167 -7.09679e-05 6.90201 4.10923e-06H4.09554C3.98612 -0.000397388 3.8788 0.0286302 3.78587 0.0837612C3.69294 0.138892 3.61815 0.217897 3.57009 0.311723L3.33929 0.750004H0.392857C0.288665 0.750004 0.18874 0.789513 0.115065 0.859839C0.0413902 0.930165 0 1.02555 0 1.125L0 1.875C0 1.97446 0.0413902 2.06984 0.115065 2.14017C0.18874 2.21049 0.288665 2.25 0.392857 2.25H10.6071C10.7113 2.25 10.8113 2.21049 10.8849 2.14017C10.9586 2.06984 11 1.97446 11 1.875V1.125C11 1.02555 10.9586 0.930165 10.8849 0.859839C10.8113 0.789513 10.7113 0.750004 10.6071 0.750004Z" fill="#00F1C7"/>
</svg> -->
<!-- <svg  xmlns="http://www.w3.org/2000/svg"  width="24"  height="24"  viewBox="0 0 24 24"  fill="none"  stroke="#ffffff"  stroke-width="2"  stroke-linecap="round"  stroke-linejoin="round"  class="icon icon-tabler icons-tabler-outline icon-tabler-trash"><path stroke="none" d="M0 0h24v24H0z" fill="none"/><path d="M4 7l16 0" /><path d="M10 11l0 6" /><path d="M14 11l0 6" /><path d="M5 7l1 12a2 2 0 0 0 2 2h8a2 2 0 0 0 2 -2l1 -12" /><path d="M9 7v-3a1 1 0 0 1 1 -1h4a1 1 0 0 1 1 1v3" /></svg> -->
<!-- <svg  xmlns="http://www.w3.org/2000/svg"  width="26"  height="26"  viewBox="0 0 24 24"  fill="none"  stroke="#ffffff"  stroke-width="2"  stroke-linecap="round"  stroke-linejoin="round"  class="icon icon-tabler icons-tabler-outline icon-tabler-trash"><path stroke="none" d="M0 0h24v24H0z" fill="none"/><path d="M4 7l16 0" /><path d="M10 11l0 6" /><path d="M14 11l0 6" /><path d="M5 7l1 12a2 2 0 0 0 2 2h8a2 2 0 0 0 2 -2l1 -12" /><path d="M9 7v-3a1 1 0 0 1 1 -1h4a1 1 0 0 1 1 1v3" /></svg> -->
<svg width="11" height="12" viewBox="0 0 11 12" fill="none" xmlns="http://www.w3.org/2000/svg">
<path d="M0.785714 10.875C0.785714 11.1734 0.909885 11.4595 1.13091 11.6705C1.35193 11.8815 1.65171 12 1.96429 12H9.03571C9.34829 12 9.64806 11.8815 9.86909 11.6705C10.0901 11.4595 10.2143 11.1734 10.2143 10.875V3H0.785714V10.875ZM7.46429 4.875C7.46429 4.77555 7.50568 4.68016 7.57935 4.60984C7.65303 4.53951 7.75295 4.5 7.85714 4.5C7.96133 4.5 8.06126 4.53951 8.13494 4.60984C8.20861 4.68016 8.25 4.77555 8.25 4.875V10.125C8.25 10.2245 8.20861 10.3198 8.13494 10.3902C8.06126 10.4605 7.96133 10.5 7.85714 10.5C7.75295 10.5 7.65303 10.4605 7.57935 10.3902C7.50568 10.3198 7.46429 10.2245 7.46429 10.125V4.875ZM5.10714 4.875C5.10714 4.77555 5.14853 4.68016 5.22221 4.60984C5.29588 4.53951 5.39581 4.5 5.5 4.5C5.60419 4.5 5.70412 4.53951 5.77779 4.60984C5.85147 4.68016 5.89286 4.77555 5.89286 4.875V10.125C5.89286 10.2245 5.85147 10.3198 5.77779 10.3902C5.70412 10.4605 5.60419 10.5 5.5 10.5C5.39581 10.5 5.29588 10.4605 5.22221 10.3902C5.14853 10.3198 5.10714 10.2245 5.10714 10.125V4.875ZM2.75 4.875C2.75 4.77555 2.79139 4.68016 2.86507 4.60984C2.93874 4.53951 3.03866 4.5 3.14286 4.5C3.24705 4.5 3.34697 4.53951 3.42065 4.60984C3.49432 4.68016 3.53571 4.77555 3.53571 4.875V10.125C3.53571 10.2245 3.49432 10.3198 3.42065 10.3902C3.34697 10.4605 3.24705 10.5 3.14286 10.5C3.03866 10.5 2.93874 10.4605 2.86507 10.3902C2.79139 10.3198 2.75 10.2245 2.75 10.125V4.875ZM10.6071 0.750004H7.66071L7.42991 0.311723C7.38102 0.218023 7.30571 0.139205 7.21244 0.084135C7.11918 0.0290653 7.01167 -7.09679e-05 6.90201 4.10923e-06H4.09554C3.98612 -0.000397388 3.8788 0.0286302 3.78587 0.0837612C3.69294 0.138892 3.61815 0.217897 3.57009 0.311723L3.33929 0.750004H0.392857C0.288665 0.750004 0.18874 0.789513 0.115065 0.859839C0.0413902 0.930165 0 1.02555 0 1.125L0 1.875C0 1.97446 0.0413902 2.06984 0.115065 2.14017C0.18874 2.21049 0.288665 2.25 0.392857 2.25H10.6071C10.7113 2.25 10.8113 2.21049 10.8849 2.14017C10.9586 2.06984 11 1.97446 11 1.875V1.125C11 1.02555 10.9586 0.930165 10.8849 0.859839C10.8113 0.789513 10.7113 0.750004 10.6071 0.750004Z" fill="white"/>
</svg>
