<svg width="22" height="16" viewBox="0 0 22 16" fill="none" xmlns="http://www.w3.org/2000/svg">
<path d="M2.75 2C2.37188 2 2.0625 2.3 2.0625 2.66667V3.5875L9.47461 9.4875C10.3641 10.1958 11.6402 10.1958 12.5297 9.4875L19.9375 3.5875V2.66667C19.9375 2.3 19.6281 2 19.25 2H2.75ZM2.0625 6.175V13.3333C2.0625 13.7 2.37188 14 2.75 14H19.25C19.6281 14 19.9375 13.7 19.9375 13.3333V6.175L13.8359 11.0333C12.1859 12.3458 9.80977 12.3458 8.16406 11.0333L2.0625 6.175ZM0 2.66667C0 1.19583 1.2332 0 2.75 0H19.25C20.7668 0 22 1.19583 22 2.66667V13.3333C22 14.8042 20.7668 16 19.25 16H2.75C1.2332 16 0 14.8042 0 13.3333V2.66667Z" fill="#00F1C7"/>
</svg>
