<svg width="347" height="280" viewBox="0 0 347 280" fill="none" xmlns="http://www.w3.org/2000/svg">
<path d="M229.256 47.8705C229.835 45.5978 231.26 43.6764 233.285 42.4781C234.917 41.507 236.797 41.0938 238.657 41.2798C239.09 41.3211 239.504 41.4037 239.938 41.507C244.627 42.7053 247.479 47.4779 246.301 52.1679C245.103 56.8578 240.33 59.7089 235.64 58.5313C230.95 57.333 228.099 52.5604 229.277 47.8705H229.256Z" fill="#E6E6E6"/>
<path d="M187.749 44.2962V55.7008C187.749 56.0313 187.956 56.3206 188.266 56.4445L197.232 59.5436C198.265 63.9856 200.021 68.1591 202.356 71.9399L198.183 80.4727C198.038 80.762 198.1 81.1339 198.327 81.3611L206.385 89.4187C206.612 89.646 206.984 89.708 207.273 89.5634L215.827 85.4106C219.587 87.7452 223.76 89.5014 228.202 90.5551L231.301 99.5424C231.405 99.8523 231.715 100.059 232.045 100.059H243.45C243.78 100.059 244.07 99.8523 244.194 99.5424L247.293 90.5757C251.735 89.5427 255.908 87.7866 259.689 85.4519L268.222 89.6253C268.511 89.77 268.883 89.708 269.11 89.4807L277.168 81.4231C277.395 81.1958 277.457 80.824 277.312 80.5347L273.16 71.9812C275.494 68.221 277.25 64.0476 278.304 59.6056L287.291 56.5065C287.601 56.4032 287.808 56.0933 287.808 55.7627V44.3581C287.808 44.0276 287.601 43.7383 287.291 43.6144L278.325 40.5153C277.292 36.0733 275.536 31.8998 273.201 28.119L277.374 19.5862C277.519 19.2969 277.457 18.925 277.23 18.6978L269.172 10.6402C268.945 10.4129 268.573 10.3509 268.284 10.4955L259.73 14.6483C255.97 12.3137 251.797 10.5575 247.355 9.50384L244.256 0.516513C244.152 0.206605 243.842 0 243.512 0H232.107C231.777 0 231.487 0.206605 231.363 0.516513L228.264 9.48318C223.822 10.5162 219.649 12.2723 215.868 14.607L207.335 10.4336C207.046 10.2889 206.674 10.3509 206.447 10.5782L198.389 18.6358C198.162 18.8631 198.1 19.2349 198.245 19.5242L202.397 28.0776C200.063 31.8379 198.307 36.0113 197.253 40.4533L188.266 43.5524C187.956 43.6557 187.749 43.9656 187.749 44.2962ZM217.727 29.9164C223.058 24.6067 230.124 21.6729 237.644 21.6729C253.181 21.6729 265.804 34.3378 265.784 49.8538C265.784 50.8042 265.742 51.7753 265.639 52.705C265.226 56.8164 263.904 60.7626 261.776 64.3162C261.59 64.6261 261.176 64.7294 260.867 64.5435C260.639 64.3988 260.515 64.1509 260.536 63.903C260.536 63.7997 260.577 63.717 260.619 63.6344C262.643 60.2667 263.883 56.4859 264.296 52.581C264.379 51.672 264.441 50.7629 264.441 49.8538C264.441 35.0609 252.437 23.0158 237.624 22.9952C230.454 22.9952 223.719 25.7843 218.637 30.8462C214.215 35.2468 211.529 40.9285 210.909 47.0647C210.806 47.9737 210.765 48.9035 210.765 49.8125C210.765 55.1016 212.294 60.0395 214.938 64.1922C219.69 71.6713 228.058 76.6505 237.582 76.6505C239.504 76.6505 241.404 76.4439 243.264 76.0514C243.615 75.9687 243.987 76.196 244.049 76.5679C244.049 76.6299 244.049 76.7125 244.049 76.7745C244.028 77.0637 243.822 77.291 243.532 77.353C243.429 77.3736 243.305 77.3943 243.202 77.415C243.14 77.415 243.078 77.4356 243.037 77.4563C243.037 77.4563 242.995 77.4563 242.975 77.4563C241.508 77.7455 239.999 77.9108 238.491 77.9521C238.181 77.9521 237.871 77.9521 237.582 77.9521C236.611 77.9521 235.64 77.9108 234.69 77.8075C228.264 77.1464 222.293 74.3366 217.665 69.6879C212.356 64.3575 209.422 57.2916 209.422 49.7712C209.422 48.8001 209.463 47.8291 209.567 46.8787C210.228 40.4533 213.037 34.4824 217.686 29.8545L217.727 29.9164ZM236.632 61.4237C236.074 61.3617 235.537 61.2791 234.979 61.1345C228.863 59.5849 225.145 53.3455 226.694 47.2093C227.438 44.2342 229.297 41.7549 231.942 40.1847C234.566 38.6145 237.644 38.16 240.619 38.9244C246.735 40.474 250.454 46.7134 248.904 52.8496C247.499 58.4279 242.189 62.0022 236.652 61.4444L236.632 61.4237Z" fill="#E6E6E6"/>
<path d="M279.812 93.5093V101.133C279.812 101.36 279.957 101.546 280.163 101.629L286.176 103.695C286.878 106.67 288.035 109.459 289.605 111.98L286.816 117.703C286.713 117.909 286.754 118.137 286.919 118.302L292.312 123.694C292.477 123.86 292.704 123.901 292.911 123.798L298.634 121.008C301.155 122.579 303.944 123.756 306.919 124.459L308.985 130.471C309.068 130.678 309.253 130.822 309.481 130.822H317.104C317.332 130.822 317.518 130.678 317.6 130.471L319.666 124.459C322.642 123.756 325.431 122.599 327.951 121.029L333.674 123.818C333.881 123.922 334.108 123.88 334.273 123.715L339.666 118.323C339.831 118.157 339.872 117.93 339.769 117.723L336.98 112C338.55 109.48 339.728 106.691 340.43 103.716L346.442 101.65C346.649 101.567 346.794 101.381 346.794 101.154V93.53C346.794 93.3027 346.649 93.1168 346.442 93.0341L340.43 90.9681C339.728 87.993 338.571 85.2038 337.001 82.6832L339.79 76.9602C339.893 76.7536 339.852 76.5264 339.686 76.3611L334.294 70.9687C334.129 70.8034 333.901 70.7621 333.695 70.8654L327.972 73.6546C325.451 72.0844 322.662 70.9067 319.687 70.2043L317.621 64.192C317.538 63.9854 317.352 63.8408 317.125 63.8408H309.501C309.274 63.8408 309.088 63.9854 309.006 64.192L306.94 70.2043C303.964 70.9067 301.175 72.0637 298.655 73.6339L292.932 70.8447C292.725 70.7414 292.498 70.7828 292.333 70.948L286.94 76.3404C286.775 76.5057 286.734 76.733 286.837 76.9396L289.626 82.6626C288.056 85.1831 286.878 87.9723 286.176 90.9474L280.163 93.0135C279.957 93.0961 279.812 93.2821 279.812 93.5093ZM299.46 83.4683C303.138 79.7907 308.014 77.7867 313.2 77.7867C318.385 77.7867 323.261 79.8114 326.939 83.489C330.616 87.1665 332.621 92.0424 332.621 97.2282C332.621 97.8894 332.579 98.5505 332.517 99.191C332.228 102.021 331.319 104.749 329.852 107.187C329.563 107.682 328.922 107.827 328.426 107.538C328.075 107.331 327.889 106.939 327.931 106.546C327.931 106.401 327.993 106.257 328.075 106.112C329.377 103.922 330.203 101.484 330.451 98.9637C330.513 98.3852 330.534 97.7861 330.534 97.2076C330.534 92.5589 328.736 88.1996 325.451 84.9146C322.166 81.6295 317.807 79.8321 313.179 79.8114C308.53 79.8114 304.171 81.6089 300.886 84.8939C298.035 87.745 296.279 91.4226 295.886 95.3894C295.824 95.9886 295.804 96.5671 295.804 97.1662C295.804 101.815 297.601 106.174 300.886 109.459C300.907 109.48 300.948 109.521 300.969 109.542C300.969 109.542 300.969 109.542 300.989 109.563C302.126 110.678 303.386 111.422 304.729 112.166C307.229 113.55 310.018 114.129 312.952 114.129C313.014 114.129 312.084 114.129 312.084 114.129V114.48C314.15 114.48 315.1 114.376 316.299 114.129C316.857 114.005 317.662 114.376 317.786 114.934C317.807 115.038 317.952 115.162 317.931 115.265C317.89 115.699 317.642 116.071 317.187 116.174C317.125 116.174 317.104 116.195 317.043 116.215C315.741 116.484 314.439 116.608 313.117 116.608C312.456 116.608 311.795 116.566 311.154 116.504C301.361 115.513 293.696 107.207 293.717 97.1662C293.717 96.5051 293.758 95.8233 293.82 95.1622C294.275 90.7202 296.217 86.6087 299.419 83.427L299.46 83.4683ZM317.29 104.046C315.844 104.914 314.171 105.286 312.518 105.1C312.146 105.059 311.753 104.997 311.382 104.893C309.357 104.377 307.663 103.116 306.588 101.319C305.514 99.5215 305.225 97.4348 305.721 95.4101C306.774 91.2367 311.03 88.7161 315.204 89.7698C319.377 90.8235 321.918 95.0795 320.844 99.2529C320.328 101.278 319.067 102.972 317.27 104.046H317.29Z" fill="#E6E6E6"/>
<path d="M308.365 100.286C307.58 98.9637 307.353 97.4348 307.725 95.9472C308.427 93.1581 311.092 91.3606 313.861 91.6498C314.129 91.6705 314.419 91.7325 314.687 91.7945C317.745 92.5796 319.625 95.6993 318.84 98.7777C318.468 100.265 317.538 101.505 316.216 102.29C314.894 103.075 313.365 103.302 311.877 102.93C310.39 102.559 309.15 101.629 308.365 100.307V100.286Z" fill="#E6E6E6"/>
<path d="M37.2166 242.286C31.9894 242.286 27.0103 238.133 27.0103 232.906V81.0306C27.0103 69.1301 37.4232 60.4734 49.3236 60.4734H278.036C289.936 60.4734 299.729 69.1301 299.729 81.0306V232.906C299.729 238.133 295.349 242.286 290.122 242.286H37.2166Z" fill="white"/>
<path d="M278.015 66.6716H49.3028C41.3279 66.6716 35.2537 73.0557 35.2537 81.0307V232.906C35.2537 234.208 35.8941 236.088 37.1958 236.088H290.101C291.403 236.088 293.51 234.228 293.51 232.906V81.0307C293.51 73.0351 285.99 66.6716 278.015 66.6716ZM287.312 231.956H39.3858V81.0307C39.3858 75.659 43.9311 72.8698 49.3028 72.8698H278.015C283.386 72.8698 287.312 75.659 287.312 81.0307V231.956Z" fill="#F2F2F2"/>
<path d="M52.7947 82.1047H274.565C275.866 82.1047 276.941 83.1584 276.941 84.4807V217.369C276.941 218.671 275.887 219.745 274.565 219.745H52.7947C51.493 219.745 50.4187 218.691 50.4187 217.369V84.4807C50.4187 83.1791 51.4724 82.1047 52.7947 82.1047Z" fill="#F2F2F2"/>
<path d="M290.143 258.525H37.2166C27.4855 258.525 19.5725 252.244 19.5725 244.538V232.927C19.5725 231.625 20.6262 230.551 21.9485 230.551H305.411C306.712 230.551 307.787 231.604 307.787 232.927V244.538C307.787 252.244 299.874 258.525 290.163 258.525H290.143ZM24.3038 235.282V244.538C24.3038 249.558 30.2127 253.794 37.2166 253.794H290.143C297.126 253.794 303.035 249.558 303.035 244.538V235.282H24.3038Z" fill="#F2F2F2"/>
<path d="M87.6841 219.693C87.8663 205.397 76.4246 193.66 62.1284 193.478C47.8322 193.296 36.0952 204.737 35.9131 219.033C35.7309 233.33 47.1726 245.067 61.4688 245.249C75.765 245.431 87.502 233.989 87.6841 219.693Z" fill="#F2F2F2"/>
<path d="M83.93 197.783C72.0089 185.573 52.4433 185.304 40.233 197.225C28.0226 209.146 27.754 228.712 39.6751 240.922C51.5963 253.133 71.1618 253.401 83.3721 241.48C95.5825 229.559 95.8511 209.993 83.93 197.783ZM43.2701 237.431C33.291 227.183 33.4976 210.799 43.7453 200.82C53.9929 190.841 70.3767 191.048 80.3557 201.295C90.3347 211.543 90.1281 227.927 79.8805 237.906C69.6329 247.885 53.2491 247.678 43.2701 237.431Z" fill="#CCCCCC"/>
<path d="M2.85807 276.809C-0.0550599 273.814 0.00692159 269.02 3.0027 266.107L25.3367 244.331L35.8942 255.157L13.5602 276.933C10.5644 279.846 5.77121 279.785 2.85807 276.789V276.809Z" fill="#CCCCCC"/>
<path d="M41.746 244.104L36.5541 238.778C34.3717 236.539 30.7877 236.494 28.5489 238.676L26.6849 240.493C24.4461 242.676 24.4005 246.26 26.5829 248.498L31.7748 253.824C33.9572 256.063 37.5412 256.109 39.7799 253.926L41.644 252.109C43.8828 249.927 43.9284 246.343 41.746 244.104Z" fill="#FFFFFD"/>
</svg>
