<svg width="14" height="11" viewBox="0 0 14 11" fill="none" xmlns="http://www.w3.org/2000/svg">
<path d="M6.99879 1.17857C5.4142 1.17857 4.11154 1.90536 3.11266 2.84085C2.17698 3.71987 1.53051 4.76339 1.19998 5.5C1.53051 6.23661 2.17698 7.28013 3.11023 8.15915C4.11154 9.09464 5.4142 9.82143 6.99879 9.82143C8.58337 9.82143 9.88603 9.09464 10.8849 8.15915C11.8206 7.28013 12.4671 6.23661 12.7976 5.5C12.4671 4.76339 11.8206 3.71987 10.8873 2.84085C9.88603 1.90536 8.58337 1.17857 6.99879 1.17857ZM2.31794 1.97902C3.46263 0.903571 5.03507 0 6.99879 0C8.9625 0 10.5349 0.903571 11.6796 1.97902C12.817 3.0471 13.5777 4.32143 13.9398 5.19799C14.02 5.39196 14.02 5.60804 13.9398 5.80201C13.5777 6.67857 12.817 7.95536 11.6796 9.02098C10.5349 10.0964 8.9625 11 6.99879 11C5.03507 11 3.46263 10.0964 2.31794 9.02098C1.18054 7.95536 0.419842 6.67857 0.060151 5.80201C-0.0200503 5.60804 -0.0200503 5.39196 0.060151 5.19799C0.419842 4.32143 1.18054 3.04464 2.31794 1.97902ZM6.99879 7.46429C8.073 7.46429 8.94306 6.58527 8.94306 5.5C8.94306 4.41473 8.073 3.53571 6.99879 3.53571C6.98177 3.53571 6.96719 3.53571 6.95018 3.53571C6.98177 3.66094 6.99879 3.79353 6.99879 3.92857C6.99879 4.79531 6.30128 5.5 5.44336 5.5C5.3097 5.5 5.17846 5.48281 5.05451 5.45089C5.05451 5.46808 5.05451 5.48281 5.05451 5.5C5.05451 6.58527 5.92457 7.46429 6.99879 7.46429ZM6.99879 2.35714C7.82383 2.35714 8.61509 2.68826 9.19848 3.27766C9.78188 3.86706 10.1096 4.66646 10.1096 5.5C10.1096 6.33354 9.78188 7.13294 9.19848 7.72234C8.61509 8.31174 7.82383 8.64286 6.99879 8.64286C6.17374 8.64286 5.38248 8.31174 4.79909 7.72234C4.21569 7.13294 3.88794 6.33354 3.88794 5.5C3.88794 4.66646 4.21569 3.86706 4.79909 3.27766C5.38248 2.68826 6.17374 2.35714 6.99879 2.35714Z" fill="black"/>
</svg>
