<svg width="19" height="19" viewBox="0 0 19 19" fill="none" xmlns="http://www.w3.org/2000/svg">
<path d="M1.1875 2.375C1.1875 1.06504 2.25254 0 3.5625 0H9.5C10.81 0 11.875 1.06504 11.875 2.375V9.5H12.1719C13.9754 9.5 15.4375 10.9621 15.4375 12.7656V13.9531C15.4375 14.4467 15.8346 14.8438 16.3281 14.8438C16.8217 14.8438 17.2188 14.4467 17.2188 13.9531V8.23828C16.1945 7.9748 15.4375 7.04336 15.4375 5.9375V3.5625L14.25 2.375C13.9234 2.04844 13.9234 1.51406 14.25 1.1875C14.5766 0.860937 15.1109 0.860937 15.4375 1.1875L18.3061 4.05605C18.7514 4.50137 19 5.10625 19 5.73711V6.23438V7.125V8.3125V13.9531C19 15.4301 17.8051 16.625 16.3281 16.625C14.8512 16.625 13.6562 15.4301 13.6562 13.9531V12.7656C13.6562 11.9455 12.992 11.2812 12.1719 11.2812H11.875V16.625C12.5318 16.625 13.0625 17.1557 13.0625 17.8125C13.0625 18.4693 12.5318 19 11.875 19H1.1875C0.530664 19 0 18.4693 0 17.8125C0 17.1557 0.530664 16.625 1.1875 16.625V2.375ZM3.5625 2.96875V6.53125C3.5625 6.85781 3.82969 7.125 4.15625 7.125H8.90625C9.23281 7.125 9.5 6.85781 9.5 6.53125V2.96875C9.5 2.64219 9.23281 2.375 8.90625 2.375H4.15625C3.82969 2.375 3.5625 2.64219 3.5625 2.96875Z" fill="#A1A2A1"/>
</svg>
