<svg width="15" height="14" viewBox="0 0 15 14" fill="none" xmlns="http://www.w3.org/2000/svg">
<path d="M14.664 9.01075C14.2895 8.79277 13.8684 8.77027 13.4464 8.94575C13.239 9.03185 13.1076 9.15076 13.0443 9.30921C13.006 9.40499 12.9957 9.50843 13.0135 9.62188C12.9027 9.68485 12.7893 9.75016 12.6782 9.82267C12.4486 9.65422 12.1826 9.68985 11.9737 9.92142C11.918 9.98315 11.8925 10.0666 11.9038 10.1491C11.9088 10.1853 11.9208 10.2197 11.9385 10.2507C11.7478 10.3613 11.5647 10.4685 11.3811 10.5819C11.2772 10.5149 11.169 10.448 11.0249 10.4675C10.8931 10.4855 10.8112 10.5625 10.7076 10.6602L10.7032 10.6643C10.6396 10.7241 10.6074 10.8104 10.6161 10.8976C10.6198 10.9351 10.631 10.971 10.6484 11.0034C10.457 11.114 10.2732 11.221 10.0894 11.3352C9.99835 11.2762 9.87499 11.1995 9.72083 11.2245C9.58005 11.2473 9.4906 11.3401 9.40395 11.4298C9.34484 11.491 9.31668 11.5759 9.3271 11.6604C9.3313 11.6946 9.34173 11.7273 9.35744 11.7571C9.16967 11.8659 8.98938 11.9712 8.80893 12.0836C8.80582 12.0854 8.80302 12.0872 8.80037 12.0887C8.63532 11.9576 8.47633 11.9723 8.39358 11.9942C8.27302 12.0259 8.18232 12.1014 8.10952 12.1709C8.04636 12.2312 8.01494 12.3176 8.02427 12.4047C8.02863 12.445 8.04154 12.4834 8.06145 12.5175C7.9986 12.5541 7.93638 12.5892 7.87384 12.6226C7.85782 12.625 7.82577 12.6256 7.80368 12.6261L7.79031 12.6264C7.66321 12.6292 7.53223 12.6292 7.40576 12.6292C7.33902 12.6292 7.27213 12.6292 7.20539 12.6297C7.1847 12.6297 7.16572 12.6314 7.14892 12.6334C7.08328 12.5969 7.01779 12.5595 6.95167 12.5212C6.97641 12.4864 6.99321 12.4458 7.00005 12.4025C7.01296 12.3219 6.99025 12.2395 6.93798 12.177C6.842 12.0623 6.5805 11.8271 6.20311 12.0826C6.01908 11.9811 5.83707 11.8757 5.64931 11.766C5.67513 11.7298 5.69224 11.6874 5.69877 11.6423C5.71044 11.5603 5.6854 11.4771 5.63048 11.4152C5.4239 11.1829 5.15306 11.1507 4.90307 11.3279C4.71936 11.2271 4.53781 11.1223 4.35052 11.013C4.37712 10.9762 4.3947 10.9327 4.40108 10.8865C4.41243 10.8032 4.38614 10.7193 4.32952 10.6574C4.11142 10.4199 3.83343 10.3914 3.59869 10.5802C3.5948 10.578 3.59044 10.5754 3.58577 10.5724C3.41015 10.4614 3.22938 10.3579 3.0536 10.2577C3.08378 10.215 3.10213 10.1642 3.10509 10.1105C3.11038 10.0174 3.06931 9.92767 2.99557 9.87111C2.88186 9.78376 2.79956 9.72063 2.67854 9.70563C2.54553 9.68922 2.44893 9.74141 2.33708 9.80189L2.3265 9.80767C2.31732 9.81251 2.30877 9.81767 2.30052 9.82267C2.19521 9.75813 2.08958 9.69766 1.9796 9.635C2.00293 9.53578 2.00184 9.44062 1.97617 9.35046C1.92966 9.18748 1.80926 9.05716 1.61823 8.96356C1.2077 8.76231 0.776013 8.7648 0.369685 8.97091C0.0526493 9.13154 0.0020916 9.37843 6.92952e-05 9.51125C-0.00335307 9.74766 0.120008 9.93549 0.366885 10.0696C0.660741 10.2291 0.982133 10.2678 1.32204 10.1846C1.34724 10.1785 1.35564 10.1763 1.39873 10.2014C2.71074 10.9648 4.04577 11.7387 5.33678 12.4872L6.30376 13.0478C6.37889 13.0914 6.45387 13.135 6.5287 13.1788C6.50521 13.2863 6.5091 13.3882 6.54021 13.4832C6.59543 13.6518 6.73202 13.7854 6.94623 13.8804C7.12574 13.9601 7.31071 14.0001 7.4994 14.0001C7.64237 14.0001 7.78735 13.9771 7.93373 13.9313C8.09847 13.8797 8.32964 13.7847 8.4348 13.5572C8.49407 13.4291 8.49531 13.2985 8.47338 13.1811L8.84564 12.9638C10.4045 12.0537 12.0161 11.1127 13.6037 10.1907C13.6083 10.191 13.6136 10.1916 13.6183 10.1927C14.0237 10.2885 14.3673 10.2464 14.6688 10.0646C14.8808 9.93658 15.0015 9.74298 15 9.53328C14.9984 9.32468 14.8758 9.13435 14.6638 9.01075H14.664Z" fill="#4E4E4E"/>
<path d="M11.0645 2.97656C10.5935 0.656608 8.26395 -0.534856 6.21753 0.231743C4.5219 0.866774 3.45039 2.85203 4.0423 4.59461C4.3777 5.58169 4.82478 6.51564 5.35587 7.40584C5.95338 8.40761 6.57859 9.3925 7.21717 10.4152C7.33602 10.6054 7.60981 10.6113 7.73675 10.4265C7.81966 10.3055 7.89604 10.1938 7.97165 10.0816C9.04036 8.49589 10.0489 6.87644 10.7744 5.09573C11.0527 4.41257 11.2143 3.71488 11.0645 2.97656ZM7.49438 5.11214C6.69137 5.10917 6.02852 4.43757 6.03257 3.63144C6.03692 2.80124 6.6727 2.16934 7.49952 2.1734C8.33162 2.17762 8.95713 2.80499 8.959 3.63738C8.96087 4.44413 8.29444 5.1151 7.49423 5.11214H7.49438Z" fill="#4E4E4E"/>
</svg>
