<svg width="13" height="14" viewBox="0 0 13 14" fill="none" xmlns="http://www.w3.org/2000/svg">
<path d="M4.39272 9.82719C4.19197 9.52395 4.00847 9.2374 3.81227 8.95959C3.77711 8.90986 3.68186 8.86142 3.62666 8.87276C2.72612 9.05613 1.83746 9.28097 1.05235 9.78265C0.837915 9.91953 0.628858 10.0791 0.456758 10.2646C-0.182628 10.9533 -0.146807 11.8013 0.54061 12.4477C1.1038 12.977 1.79919 13.2649 2.52911 13.4758C4.38865 14.0128 6.2845 14.0964 8.20071 13.9073C9.3603 13.793 10.4969 13.5793 11.5486 13.0561C11.8584 12.9019 12.1608 12.7096 12.42 12.4823C13.2085 11.791 13.1865 10.7909 12.3949 10.1032C11.8425 9.62341 11.1813 9.35435 10.4935 9.14425C10.1456 9.03799 9.78851 8.95861 9.43161 8.88621C9.35655 8.87098 9.22972 8.91423 9.18576 8.97368C8.98793 9.24128 8.81144 9.52444 8.60384 9.83707C8.80362 9.87287 8.98028 9.90155 9.15547 9.9367C9.88115 10.0822 10.5974 10.261 11.2498 10.6232C11.4312 10.7238 11.6065 10.8479 11.755 10.9916C11.9789 11.2081 11.9649 11.4153 11.7482 11.639C11.4247 11.9729 11.0065 12.1493 10.5819 12.3014C9.63937 12.639 8.66132 12.8029 7.66308 12.8761C6.55462 12.9574 5.4512 12.9309 4.35299 12.7713C3.4658 12.6424 2.5944 12.4422 1.79366 12.022C1.59062 11.9154 1.39996 11.7691 1.23715 11.6076C1.02727 11.3994 1.02027 11.1877 1.24594 11.0023C1.5058 10.7884 1.79626 10.5961 2.1022 10.4564C2.7691 10.1518 3.47915 9.97914 4.20711 9.88324C4.26019 9.87628 4.31099 9.85279 4.39305 9.82768L4.39272 9.82719Z" fill="#4E4E4E"/>
<path d="M2.76791 3.08572C3.26076 0.680687 5.69896 -0.55447 7.84083 0.240242C9.61554 0.89856 10.737 2.95662 10.1175 4.7631C9.76647 5.78638 9.29854 6.75458 8.74268 7.67743C8.11729 8.71593 7.46293 9.73694 6.79456 10.7971C6.67017 10.9943 6.38361 11.0004 6.25075 10.8088C6.16396 10.6834 6.08402 10.5676 6.00489 10.4513C4.88633 8.80745 3.83078 7.12861 3.0714 5.2826C2.78012 4.57439 2.61095 3.85111 2.76774 3.08572H2.76791ZM6.50442 5.29961C7.34488 5.29653 8.03865 4.60031 8.03442 3.76461C8.02986 2.90397 7.36442 2.24889 6.49904 2.2531C5.62813 2.25748 4.97344 2.90786 4.97149 3.77077C4.96953 4.60711 5.66704 5.30269 6.50458 5.29961H6.50442Z" fill="#4E4E4E"/>
</svg>
