<svg width="15" height="14" viewBox="0 0 15 14" fill="none" xmlns="http://www.w3.org/2000/svg">
<path d="M14.6641 9.01075C14.2897 8.79277 13.8685 8.77027 13.4465 8.94575C13.2391 9.03185 13.1077 9.15076 13.0444 9.30921C13.0061 9.40499 12.9958 9.50843 13.0136 9.62188C12.9028 9.68485 12.7894 9.75016 12.6783 9.82267C12.4487 9.65422 12.1827 9.68985 11.9738 9.92142C11.9181 9.98315 11.8926 10.0666 11.904 10.1491C11.9089 10.1853 11.9209 10.2197 11.9386 10.2507C11.7479 10.3613 11.5648 10.4685 11.3813 10.5819C11.2774 10.5149 11.1691 10.448 11.025 10.4675C10.8933 10.4855 10.8113 10.5625 10.7077 10.6602L10.7033 10.6643C10.6397 10.7241 10.6075 10.8104 10.6162 10.8976C10.6199 10.9351 10.6311 10.971 10.6486 11.0034C10.4571 11.114 10.2734 11.221 10.0895 11.3352C9.99848 11.2762 9.87512 11.1995 9.72095 11.2245C9.58017 11.2473 9.49072 11.3401 9.40407 11.4298C9.34496 11.491 9.3168 11.5759 9.32723 11.6604C9.33143 11.6946 9.34185 11.7273 9.35756 11.7571C9.1698 11.8659 8.9895 11.9712 8.80905 12.0836C8.80594 12.0854 8.80314 12.0872 8.80049 12.0887C8.63544 11.9576 8.47646 11.9723 8.3937 11.9942C8.27314 12.0259 8.18244 12.1014 8.10964 12.1709C8.04648 12.2312 8.01506 12.3176 8.02439 12.4047C8.02875 12.445 8.04166 12.4834 8.06157 12.5175C7.99873 12.5541 7.9365 12.5892 7.87396 12.6226C7.85794 12.625 7.8259 12.6256 7.80381 12.6261L7.79043 12.6264C7.66333 12.6292 7.53235 12.6292 7.40588 12.6292C7.33914 12.6292 7.27225 12.6292 7.20551 12.6297C7.18482 12.6297 7.16585 12.6314 7.14905 12.6334C7.0834 12.5969 7.01791 12.5595 6.95179 12.5212C6.97653 12.4864 6.99333 12.4458 7.00017 12.4025C7.01308 12.3219 6.99037 12.2395 6.9381 12.177C6.84212 12.0623 6.58062 11.8271 6.20323 12.0826C6.0192 11.9811 5.83719 11.8757 5.64943 11.766C5.67525 11.7298 5.69236 11.6874 5.6989 11.6423C5.71056 11.5603 5.68552 11.4771 5.6306 11.4152C5.42402 11.1829 5.15318 11.1507 4.9032 11.3279C4.71948 11.2271 4.53794 11.1223 4.35064 11.013C4.37724 10.9762 4.39482 10.9327 4.4012 10.8865C4.41255 10.8032 4.38626 10.7193 4.32964 10.6574C4.11154 10.4199 3.83355 10.3914 3.59881 10.5802C3.59492 10.578 3.59056 10.5754 3.5859 10.5724C3.41027 10.4614 3.2295 10.3579 3.05372 10.2577C3.0839 10.215 3.10225 10.1642 3.10521 10.1105C3.1105 10.0174 3.06943 9.92767 2.99569 9.87111C2.88198 9.78376 2.79969 9.72063 2.67866 9.70563C2.54565 9.68922 2.44905 9.74141 2.3372 9.80189L2.32662 9.80767C2.31744 9.81251 2.30889 9.81767 2.30064 9.82267C2.19533 9.75813 2.0897 9.69766 1.97972 9.635C2.00305 9.53578 2.00196 9.44062 1.9763 9.35046C1.92978 9.18748 1.80938 9.05716 1.61835 8.96356C1.20782 8.76231 0.776135 8.7648 0.369807 8.97091C0.0527713 9.13154 0.00221367 9.37843 0.000191365 9.51125C-0.003231 9.74766 0.12013 9.93549 0.367007 10.0696C0.660863 10.2291 0.982255 10.2678 1.32216 10.1846C1.34736 10.1785 1.35576 10.1763 1.39885 10.2014C2.71086 10.9648 4.04589 11.7387 5.3369 12.4872L6.30388 13.0478C6.37901 13.0914 6.45399 13.135 6.52882 13.1788C6.50533 13.2863 6.50922 13.3882 6.54033 13.4832C6.59556 13.6518 6.73214 13.7854 6.94635 13.8804C7.12587 13.9601 7.31083 14.0001 7.49953 14.0001C7.64249 14.0001 7.78747 13.9771 7.93386 13.9313C8.0986 13.8797 8.32976 13.7847 8.43492 13.5572C8.49419 13.4291 8.49544 13.2985 8.4735 13.1811L8.84576 12.9638C10.4046 12.0537 12.0163 11.1127 13.6038 10.1907C13.6084 10.191 13.6137 10.1916 13.6184 10.1927C14.0238 10.2885 14.3674 10.2464 14.6689 10.0646C14.8809 9.93658 15.0017 9.74298 15.0001 9.53328C14.9986 9.32468 14.876 9.13435 14.6639 9.01075H14.6641Z" fill="white"/>
<path d="M11.0649 2.97656C10.5939 0.656608 8.26431 -0.534856 6.2179 0.231743C4.52227 0.866774 3.45076 2.85203 4.04267 4.59461C4.37806 5.58169 4.82515 6.51564 5.35624 7.40584C5.95375 8.40761 6.57895 9.3925 7.21754 10.4152C7.33639 10.6054 7.61018 10.6113 7.73711 10.4265C7.82003 10.3055 7.89641 10.1938 7.97201 10.0816C9.04072 8.49589 10.0492 6.87644 10.7748 5.09573C11.0531 4.41257 11.2147 3.71488 11.0649 2.97656ZM7.49475 5.11214C6.69174 5.10917 6.02889 4.43757 6.03293 3.63144C6.03729 2.80124 6.67307 2.16934 7.49988 2.1734C8.33198 2.17762 8.9575 2.80499 8.95937 3.63738C8.96123 4.44413 8.2948 5.1151 7.49459 5.11214H7.49475Z" fill="white"/>
</svg>
