<svg width="20" height="20" viewBox="0 0 20 20" fill="none" xmlns="http://www.w3.org/2000/svg">
<path d="M8.09375 0.0195567C8.87054 0.14897 9.39732 0.885287 9.26786 1.66177L8.83036 4.28573H13.0759L13.5893 1.1932C13.7188 0.416722 14.4554 -0.109857 15.2321 0.0195567C16.0089 0.14897 16.5357 0.885287 16.4062 1.66177L15.9732 4.28573H18.5714C19.3616 4.28573 20 4.92387 20 5.71374C20 6.50361 19.3616 7.14175 18.5714 7.14175H15.4955L14.5446 12.8538H17.1429C17.933 12.8538 18.5714 13.4919 18.5714 14.2818C18.5714 15.0717 17.933 15.7098 17.1429 15.7098H14.067L13.5536 18.8023C13.4241 19.5788 12.6875 20.1054 11.9107 19.976C11.1339 19.8466 10.6071 19.1103 10.7366 18.3338L11.1741 15.7143H6.92411L6.41071 18.8068C6.28125 19.5833 5.54464 20.1099 4.76786 19.9804C3.99107 19.851 3.46429 19.1147 3.59375 18.3382L4.02679 15.7098H1.42857C0.638393 15.7098 0 15.0717 0 14.2818C0 13.4919 0.638393 12.8538 1.42857 12.8538H4.50446L5.45536 7.14175H2.85714C2.06696 7.14175 1.42857 6.50361 1.42857 5.71374C1.42857 4.92387 2.06696 4.28573 2.85714 4.28573H5.93304L6.44643 1.1932C6.57589 0.416722 7.3125 -0.109857 8.08929 0.0195567H8.09375ZM8.35268 7.14175L7.40179 12.8538H11.6473L12.5982 7.14175H8.35268Z" fill="#A1A2A1"/>
</svg>
