<svg width="26" height="27" viewBox="0 0 26 27" fill="none" xmlns="http://www.w3.org/2000/svg">
<path d="M8.78525 18.9533C8.38374 18.3684 8.01675 17.8158 7.62436 17.28C7.55403 17.1841 7.36353 17.0907 7.25314 17.1126C5.45205 17.4662 3.67474 17.8998 2.10453 18.8673C1.67566 19.1313 1.25755 19.439 0.913353 19.7967C-0.365414 21.1251 -0.293774 22.7605 1.08106 24.007C2.20743 25.0279 3.59822 25.583 5.05803 25.9898C8.77711 27.0254 12.5688 27.1866 16.4012 26.822C18.7204 26.6014 20.9936 26.1894 23.0969 25.1803C23.7166 24.8829 24.3213 24.5121 24.8397 24.0738C26.4168 22.7405 26.3728 20.8117 24.7896 19.4856C23.6847 18.5603 22.3623 18.0414 20.9868 17.6362C20.2909 17.4312 19.5768 17.2782 18.863 17.1385C18.7129 17.1092 18.4592 17.1926 18.3713 17.3072C17.9756 17.8233 17.6227 18.3694 17.2075 18.9723C17.607 19.0414 17.9603 19.0966 18.3107 19.1644C19.7621 19.445 21.1945 19.7899 22.4994 20.4884C22.8621 20.6824 23.2128 20.9217 23.5098 21.1988C23.9576 21.6165 23.9296 22.016 23.4961 22.4475C22.8491 23.0913 22.0129 23.4315 21.1636 23.7249C19.2785 24.3759 17.3224 24.692 15.326 24.8333C13.109 24.9901 10.9022 24.9388 8.7058 24.6311C6.93141 24.3825 5.18861 23.9963 3.58714 23.186C3.18107 22.9804 2.79976 22.6983 2.47412 22.3868C2.05438 21.9854 2.04038 21.5771 2.49171 21.2194C3.01142 20.807 3.59235 20.4362 4.20422 20.1666C5.53802 19.5793 6.95811 19.2463 8.41403 19.0613C8.52019 19.0479 8.62178 19.0026 8.7859 18.9542L8.78525 18.9533Z" fill="white"/>
<path d="M5.53586 5.95094C6.52156 1.31273 11.3979 -1.06932 15.6817 0.463317C19.2311 1.73291 21.4741 5.70196 20.235 9.18585C19.533 11.1593 18.5971 13.0265 17.4854 14.8062C16.2346 16.809 14.9259 18.7781 13.5891 20.8228C13.3404 21.203 12.7672 21.2148 12.5015 20.8453C12.328 20.6035 12.1681 20.3801 12.0098 20.1558C9.7727 16.9856 7.66161 13.7478 6.14285 10.1877C5.56028 8.8219 5.22195 7.42704 5.53554 5.95094H5.53586ZM13.0089 10.2205C14.6898 10.2146 16.0773 8.87189 16.0688 7.26021C16.0597 5.60043 14.7289 4.33708 12.9981 4.3452C11.2563 4.35364 9.94691 5.60793 9.94301 7.27208C9.9391 8.88501 11.3341 10.2265 13.0092 10.2205H13.0089Z" fill="white"/>
</svg>
