<svg width="26" height="27" viewBox="0 0 26 27" fill="none" xmlns="http://www.w3.org/2000/svg">
<path d="M8.78525 18.9537C8.38374 18.3689 8.01675 17.8163 7.62436 17.2805C7.55403 17.1846 7.36353 17.0912 7.25314 17.1131C5.45205 17.4667 3.67474 17.9003 2.10453 18.8678C1.67566 19.1318 1.25755 19.4395 0.913353 19.7972C-0.365414 21.1256 -0.293774 22.761 1.08106 24.0074C2.20743 25.0284 3.59822 25.5835 5.05803 25.9902C8.77711 27.0259 12.5688 27.1871 16.4012 26.8225C18.7204 26.6019 20.9936 26.1899 23.0969 25.1808C23.7166 24.8834 24.3213 24.5126 24.8397 24.0743C26.4168 22.741 26.3728 20.8122 24.7896 19.4861C23.6847 18.5607 22.3623 18.0418 20.9868 17.6367C20.2909 17.4317 19.5768 17.2787 18.863 17.139C18.7129 17.1096 18.4592 17.1931 18.3713 17.3077C17.9756 17.8238 17.6227 18.3699 17.2075 18.9728C17.607 19.0418 17.9603 19.0971 18.3107 19.1649C19.7621 19.4455 21.1945 19.7903 22.4994 20.4889C22.8621 20.6829 23.2128 20.9222 23.5098 21.1993C23.9576 21.617 23.9296 22.0165 23.4961 22.4479C22.8491 23.0918 22.0129 23.432 21.1636 23.7253C19.2785 24.3764 17.3224 24.6925 15.326 24.8337C13.109 24.9906 10.9022 24.9393 8.7058 24.6316C6.93141 24.383 5.18861 23.9968 3.58714 23.1865C3.18107 22.9809 2.79976 22.6988 2.47412 22.3873C2.05438 21.9859 2.04038 21.5776 2.49171 21.2199C3.01142 20.8075 3.59235 20.4367 4.20422 20.1671C5.53802 19.5798 6.95811 19.2468 8.41403 19.0618C8.52019 19.0484 8.62178 19.0031 8.7859 18.9547L8.78525 18.9537Z" fill="#00F1C7"/>
<path d="M5.53586 5.95094C6.52156 1.31273 11.3979 -1.06932 15.6817 0.463317C19.2311 1.73291 21.4741 5.70196 20.235 9.18585C19.533 11.1593 18.5971 13.0265 17.4854 14.8062C16.2346 16.809 14.9259 18.7781 13.5891 20.8228C13.3404 21.203 12.7672 21.2148 12.5015 20.8453C12.328 20.6035 12.1681 20.3801 12.0098 20.1558C9.7727 16.9856 7.66161 13.7478 6.14285 10.1877C5.56028 8.8219 5.22195 7.42704 5.53554 5.95094H5.53586ZM13.0089 10.2205C14.6898 10.2146 16.0773 8.87189 16.0688 7.26021C16.0597 5.60043 14.7289 4.33708 12.9981 4.3452C11.2563 4.35364 9.94691 5.60793 9.94301 7.27208C9.9391 8.88501 11.3341 10.2265 13.0092 10.2205H13.0089Z" fill="#00F1C7"/>
</svg>
