<svg width="25" height="35" viewBox="0 0 25 35" fill="none" xmlns="http://www.w3.org/2000/svg">
<path d="M4.16667 0C1.86849 0 0 1.96191 0 4.375V30.625C0 33.0381 1.86849 35 4.16667 35H20.8333C23.1315 35 25 33.0381 25 30.625V10.9375H16.6667C15.5143 10.9375 14.5833 9.95996 14.5833 8.75V0H4.16667ZM16.6667 0V8.75H25L16.6667 0ZM5.20833 4.375H9.375C9.94792 4.375 10.4167 4.86719 10.4167 5.46875C10.4167 6.07031 9.94792 6.5625 9.375 6.5625H5.20833C4.63542 6.5625 4.16667 6.07031 4.16667 5.46875C4.16667 4.86719 4.63542 4.375 5.20833 4.375ZM5.20833 8.75H9.375C9.94792 8.75 10.4167 9.24219 10.4167 9.84375C10.4167 10.4453 9.94792 10.9375 9.375 10.9375H5.20833C4.63542 10.9375 4.16667 10.4453 4.16667 9.84375C4.16667 9.24219 4.63542 8.75 5.20833 8.75ZM6.25 15.3125H18.75C19.9023 15.3125 20.8333 16.29 20.8333 17.5V21.875C20.8333 23.085 19.9023 24.0625 18.75 24.0625H6.25C5.09766 24.0625 4.16667 23.085 4.16667 21.875V17.5C4.16667 16.29 5.09766 15.3125 6.25 15.3125ZM6.25 17.5V21.875H18.75V17.5H6.25ZM15.625 28.4375H19.7917C20.3646 28.4375 20.8333 28.9297 20.8333 29.5312C20.8333 30.1328 20.3646 30.625 19.7917 30.625H15.625C15.0521 30.625 14.5833 30.1328 14.5833 29.5312C14.5833 28.9297 15.0521 28.4375 15.625 28.4375Z" fill="white"/>
</svg>
