<svg width="16" height="22" viewBox="0 0 16 22" fill="none" xmlns="http://www.w3.org/2000/svg">
<path d="M2.66667 0C1.19583 0 0 1.2332 0 2.75V19.25C0 20.7668 1.19583 22 2.66667 22H13.3333C14.8042 22 16 20.7668 16 19.25V6.875H10.6667C9.92917 6.875 9.33333 6.26055 9.33333 5.5V0H2.66667ZM10.6667 0V5.5H16L10.6667 0ZM3.33333 2.75H6C6.36667 2.75 6.66667 3.05937 6.66667 3.4375C6.66667 3.81563 6.36667 4.125 6 4.125H3.33333C2.96667 4.125 2.66667 3.81563 2.66667 3.4375C2.66667 3.05937 2.96667 2.75 3.33333 2.75ZM3.33333 5.5H6C6.36667 5.5 6.66667 5.80937 6.66667 6.1875C6.66667 6.56563 6.36667 6.875 6 6.875H3.33333C2.96667 6.875 2.66667 6.56563 2.66667 6.1875C2.66667 5.80937 2.96667 5.5 3.33333 5.5ZM4 9.625H12C12.7375 9.625 13.3333 10.2395 13.3333 11V13.75C13.3333 14.5105 12.7375 15.125 12 15.125H4C3.2625 15.125 2.66667 14.5105 2.66667 13.75V11C2.66667 10.2395 3.2625 9.625 4 9.625ZM4 11V13.75H12V11H4ZM10 17.875H12.6667C13.0333 17.875 13.3333 18.1844 13.3333 18.5625C13.3333 18.9406 13.0333 19.25 12.6667 19.25H10C9.63333 19.25 9.33333 18.9406 9.33333 18.5625C9.33333 18.1844 9.63333 17.875 10 17.875Z" fill="#00F1C7"/>
</svg>
