<svg width="14" height="18" viewBox="0 0 14 18" fill="none" xmlns="http://www.w3.org/2000/svg">
<path d="M11.6667 16.3125C11.9875 16.3125 12.25 16.0594 12.25 15.75V5.625H9.33333C8.68802 5.625 8.16667 5.12227 8.16667 4.5V1.6875H2.33333C2.0125 1.6875 1.75 1.94062 1.75 2.25V15.75C1.75 16.0594 2.0125 16.3125 2.33333 16.3125H11.6667ZM0 2.25C0 1.00898 1.04635 0 2.33333 0H8.36719C8.98698 0 9.58125 0.235547 10.0187 0.657422L13.3182 3.83906C13.7557 4.26094 14 4.83398 14 5.43164V15.75C14 16.991 12.9536 18 11.6667 18H2.33333C1.04635 18 0 16.991 0 15.75V2.25Z" fill="#A1A2A1"/>
</svg>
