<svg width="16" height="20" viewBox="0 0 16 20" fill="none" xmlns="http://www.w3.org/2000/svg">
<path d="M2.66667 0C1.19583 0 0 1.12109 0 2.5V17.5C0 18.8789 1.19583 20 2.66667 20H13.3333C14.8042 20 16 18.8789 16 17.5V6.25H10.6667C9.92917 6.25 9.33333 5.69141 9.33333 5V0H2.66667ZM10.6667 0V5H16L10.6667 0ZM3.33333 2.5H6C6.36667 2.5 6.66667 2.78125 6.66667 3.125C6.66667 3.46875 6.36667 3.75 6 3.75H3.33333C2.96667 3.75 2.66667 3.46875 2.66667 3.125C2.66667 2.78125 2.96667 2.5 3.33333 2.5ZM3.33333 5H6C6.36667 5 6.66667 5.28125 6.66667 5.625C6.66667 5.96875 6.36667 6.25 6 6.25H3.33333C2.96667 6.25 2.66667 5.96875 2.66667 5.625C2.66667 5.28125 2.96667 5 3.33333 5ZM4 8.75H12C12.7375 8.75 13.3333 9.30859 13.3333 10V12.5C13.3333 13.1914 12.7375 13.75 12 13.75H4C3.2625 13.75 2.66667 13.1914 2.66667 12.5V10C2.66667 9.30859 3.2625 8.75 4 8.75ZM4 10V12.5H12V10H4ZM10 16.25H12.6667C13.0333 16.25 13.3333 16.5312 13.3333 16.875C13.3333 17.2188 13.0333 17.5 12.6667 17.5H10C9.63333 17.5 9.33333 17.2188 9.33333 16.875C9.33333 16.5312 9.63333 16.25 10 16.25Z" fill="#A1A2A1"/>
</svg>
