<svg width="24" height="20" viewBox="0 0 24 20" fill="none" xmlns="http://www.w3.org/2000/svg">
<path d="M17 4.75777C17 6.92255 13.9542 10.7803 12.6167 12.3702C12.2958 12.7508 11.7 12.7508 11.3833 12.3702C10.0458 10.7803 7 6.92255 7 4.75777C7 2.1291 9.2375 0 12 0C14.7625 0 17 2.1291 17 4.75777ZM17.3333 7.94547C17.4792 7.6719 17.6125 7.39833 17.7333 7.12872C17.7542 7.08114 17.775 7.0296 17.7958 6.98202L22.6292 5.14235C23.2875 4.89257 24 5.35249 24 6.0265V16.7632C24 17.1518 23.75 17.5007 23.3708 17.6474L17.3333 19.943V7.94547ZM5.73333 5.48333C5.83333 6.04236 6.03333 6.60537 6.26667 7.12872C6.3875 7.39833 6.52083 7.6719 6.66667 7.94547V17.913L1.37083 19.9311C0.7125 20.1809 0 19.7209 0 19.0469V8.31023C0 7.92168 0.25 7.57278 0.629167 7.42608L5.7375 5.48333H5.73333ZM13.6583 13.1632C14.2375 12.4733 15.1458 11.3512 16 10.1103V19.9945L8 17.8178V10.1103C8.85417 11.3512 9.7625 12.4733 10.3417 13.1632C11.1958 14.1781 12.8042 14.1781 13.6583 13.1632ZM12 6.0265C12.442 6.0265 12.866 5.85942 13.1785 5.562C13.4911 5.26458 13.6667 4.8612 13.6667 4.44058C13.6667 4.01997 13.4911 3.61658 13.1785 3.31917C12.866 3.02175 12.442 2.85466 12 2.85466C11.558 2.85466 11.134 3.02175 10.8215 3.31917C10.5089 3.61658 10.3333 4.01997 10.3333 4.44058C10.3333 4.8612 10.5089 5.26458 10.8215 5.562C11.134 5.85942 11.558 6.0265 12 6.0265Z" fill="#A1A2A1"/>
</svg>
