<svg width="39" height="34" viewBox="0 0 39 34" fill="none" xmlns="http://www.w3.org/2000/svg">
<path d="M27.625 8.0882C27.625 11.7683 22.6755 18.3265 20.5021 21.0293C19.9807 21.6764 19.0125 21.6764 18.4979 21.0293C16.3245 18.3265 11.375 11.7683 11.375 8.0882C11.375 3.61947 15.0109 0 19.5 0C23.9891 0 27.625 3.61947 27.625 8.0882ZM28.1667 13.5073C28.4036 13.0422 28.6203 12.5772 28.8167 12.1188C28.8505 12.0379 28.8844 11.9503 28.9182 11.8694L36.7724 8.742C37.8422 8.31737 39 9.09923 39 10.2451V28.4974C39 29.158 38.5938 29.7511 37.9776 30.0005L28.1667 33.9031V13.5073ZM9.31667 9.32166C9.47917 10.272 9.80417 11.2291 10.1833 12.1188C10.3797 12.5772 10.5964 13.0422 10.8333 13.5073V30.4521L2.2276 33.8828C1.15781 34.3075 0 33.5256 0 32.3798V14.1274C0 13.4669 0.40625 12.8737 1.0224 12.6243L9.32344 9.32166H9.31667ZM22.1948 22.3774C23.1359 21.2046 24.612 19.2971 26 17.1874V33.9907L13 30.2903V17.1874C14.388 19.2971 15.8641 21.2046 16.8052 22.3774C18.1932 24.1028 20.8068 24.1028 22.1948 22.3774ZM19.5 10.2451C20.2183 10.2451 20.9072 9.96101 21.4151 9.4554C21.923 8.94979 22.2083 8.26403 22.2083 7.54899C22.2083 6.83395 21.923 6.14819 21.4151 5.64258C20.9072 5.13697 20.2183 4.85292 19.5 4.85292C18.7817 4.85292 18.0928 5.13697 17.5849 5.64258C17.077 6.14819 16.7917 6.83395 16.7917 7.54899C16.7917 8.26403 17.077 8.94979 17.5849 9.4554C18.0928 9.96101 18.7817 10.2451 19.5 10.2451Z" fill="white"/>
</svg>
