<svg width="22" height="18" viewBox="0 0 22 18" fill="none" xmlns="http://www.w3.org/2000/svg">
<path d="M14.3542 17.6205H8.68516C8.29692 17.374 7.88634 17.1567 7.52644 16.8732C7.19231 16.6095 6.87364 16.3054 6.61681 15.967C6.06794 15.2438 5.39023 14.9672 4.47717 15.06C3.6981 15.1381 3.36311 14.7447 3.35967 13.9605C3.35795 13.5233 3.35967 13.0852 3.35967 12.6669H2.49385C2.49385 13.2596 2.50416 13.8171 2.49041 14.3728C2.47839 14.8701 2.2061 15.1261 1.70877 15.1355C1.45194 15.1407 1.19254 15.1175 0.937432 15.1407C0.49679 15.1819 0.191004 15.0144 0.00976562 14.6133V8.08528C0.216773 7.70992 0.527713 7.53984 0.960624 7.5785C1.17364 7.59739 1.38924 7.58022 1.60398 7.58193C2.2396 7.58795 2.48698 7.83103 2.49299 8.46751C2.49814 9.00607 2.49385 9.54464 2.49385 10.0935H3.35967C3.35967 9.54807 3.35194 9.03442 3.36139 8.52077C3.37256 7.91521 3.7127 7.56304 4.31311 7.53813C4.69878 7.52267 5.08788 7.55874 5.47097 7.52095C5.66252 7.50205 5.88842 7.41787 6.02156 7.28474C6.61767 6.68777 7.1966 6.0719 7.76179 5.44572C8.0504 5.12534 8.38281 4.96643 8.81315 4.96729C11.7894 4.97158 14.7657 4.96643 17.7419 4.97158C18.3655 4.97244 18.6481 5.27479 18.6498 5.9044C18.6524 7.14902 18.6498 8.3945 18.6498 9.63912C18.6498 9.7903 18.6498 9.94147 18.6498 10.103H19.5157C19.5157 9.74391 19.5157 9.40463 19.5157 9.0662C19.5157 7.61372 19.55 7.59224 21.0068 7.5742C21.4509 7.56905 21.7842 7.6893 21.9998 8.08528V14.6133C21.8151 15.0084 21.5119 15.1828 21.0721 15.1398C20.8599 15.1192 20.6435 15.1373 20.4296 15.1364C19.745 15.1338 19.5182 14.9028 19.5157 14.2019C19.514 13.6916 19.5157 13.1814 19.5157 12.6549H18.631C18.7873 13.5585 18.2685 14.1065 17.6844 14.6494C16.8469 15.4276 16.0558 16.2539 15.2226 17.0364C14.9718 17.2718 14.6463 17.4281 14.3551 17.6205H14.3542ZM13.6001 7.41702C13.0254 7.41702 12.5333 7.47628 12.0617 7.40413C11.2706 7.28302 10.8652 7.57936 10.5843 8.32578C10.1797 9.40119 9.64891 10.4294 9.149 11.5297C9.91862 11.6087 10.635 11.6817 11.3952 11.7599C10.9253 13.0784 10.4778 14.335 10.0311 15.5916C10.0586 15.6071 10.0861 15.6226 10.1145 15.638C11.646 13.8033 13.1766 11.9686 14.7545 10.0772C13.8518 9.97153 13.0289 9.87533 12.1536 9.77226C12.6423 8.97773 13.0959 8.23989 13.6018 7.41702H13.6001Z" fill="#A1A2A1"/>
<path d="M15.6425 0.699219C16.0462 0.895059 16.23 1.20686 16.1793 1.6621C16.1579 1.85966 16.1768 2.06151 16.1759 2.26165C16.1725 2.96341 15.9517 3.18846 15.2628 3.19017C14.7767 3.19189 14.2914 3.19275 13.8052 3.19533C13.7786 3.19533 13.7519 3.20821 13.6841 3.22539V4.04225H11.1691C11.1536 3.76567 11.1399 3.50026 11.1227 3.19017C10.5635 3.19017 10.0241 3.19189 9.48553 3.19017C8.85678 3.1876 8.61112 2.9385 8.6051 2.30288C8.60253 2.08814 8.61971 1.87254 8.60167 1.66038C8.56302 1.18624 8.74769 0.862419 9.20036 0.700078H15.6425V0.699219Z" fill="#A1A2A1"/>
</svg>
