<svg width="14" height="18" viewBox="0 0 14 18" fill="none" xmlns="http://www.w3.org/2000/svg">
<path d="M8.16667 4.78125V0H0.875C0.390104 0 0 0.376172 0 0.84375V17.1562C0 17.6238 0.390104 18 0.875 18H13.125C13.6099 18 14 17.6238 14 17.1562V5.625H9.04167C8.56042 5.625 8.16667 5.24531 8.16667 4.78125ZM10.5 13.0781C10.5 13.3102 10.3031 13.5 10.0625 13.5H3.9375C3.69687 13.5 3.5 13.3102 3.5 13.0781V12.7969C3.5 12.5648 3.69687 12.375 3.9375 12.375H10.0625C10.3031 12.375 10.5 12.5648 10.5 12.7969V13.0781ZM10.5 10.8281C10.5 11.0602 10.3031 11.25 10.0625 11.25H3.9375C3.69687 11.25 3.5 11.0602 3.5 10.8281V10.5469C3.5 10.3148 3.69687 10.125 3.9375 10.125H10.0625C10.3031 10.125 10.5 10.3148 10.5 10.5469V10.8281ZM10.5 8.29688V8.57812C10.5 8.81016 10.3031 9 10.0625 9H3.9375C3.69687 9 3.5 8.81016 3.5 8.57812V8.29688C3.5 8.06484 3.69687 7.875 3.9375 7.875H10.0625C10.3031 7.875 10.5 8.06484 10.5 8.29688ZM14 4.28555V4.5H9.33333V0H9.55573C9.78906 0 10.0115 0.0878906 10.1755 0.246094L13.7448 3.69141C13.9089 3.84961 14 4.06406 14 4.28555Z" fill="#A1A2A1"/>
</svg>
