<svg width="26" height="20" viewBox="0 0 26 20" fill="none" xmlns="http://www.w3.org/2000/svg">
<path d="M9.38889 2.14286C9.38889 0.959821 10.3594 0 11.5556 0H14.4444C15.6406 0 16.6111 0.959821 16.6111 2.14286V5C16.6111 6.18304 15.6406 7.14286 14.4444 7.14286H14.0833V8.92857H20.9444C22.3392 8.92857 23.4722 10.0491 23.4722 11.4286V12.8571H23.8333C25.0295 12.8571 26 13.817 26 15V17.8571C26 19.0402 25.0295 20 23.8333 20H20.9444C19.7483 20 18.7778 19.0402 18.7778 17.8571V15C18.7778 13.817 19.7483 12.8571 20.9444 12.8571H21.3056V11.4286C21.3056 11.2321 21.1431 11.0714 20.9444 11.0714H14.0833V12.8571H14.4444C15.6406 12.8571 16.6111 13.817 16.6111 15V17.8571C16.6111 19.0402 15.6406 20 14.4444 20H11.5556C10.3594 20 9.38889 19.0402 9.38889 17.8571V15C9.38889 13.817 10.3594 12.8571 11.5556 12.8571H11.9167V11.0714H5.05556C4.85694 11.0714 4.69444 11.2321 4.69444 11.4286V12.8571H5.05556C6.25174 12.8571 7.22222 13.817 7.22222 15V17.8571C7.22222 19.0402 6.25174 20 5.05556 20H2.16667C0.970486 20 0 19.0402 0 17.8571V15C0 13.817 0.970486 12.8571 2.16667 12.8571H2.52778V11.4286C2.52778 10.0491 3.66076 8.92857 5.05556 8.92857H11.9167V7.14286H11.5556C10.3594 7.14286 9.38889 6.18304 9.38889 5V2.14286Z" fill="#A1A2A1"/>
</svg>
