<svg width="13" height="13" viewBox="0 0 13 13" fill="none" xmlns="http://www.w3.org/2000/svg">
<path d="M12.8232 11.2393L10.2916 8.70813C10.1773 8.59389 10.0224 8.53042 9.8599 8.53042H9.446C10.1468 7.63422 10.5633 6.50698 10.5633 5.28073C10.5633 2.36364 8.19923 0 5.28164 0C2.36404 0 0 2.36364 0 5.28073C0 8.19783 2.36404 10.5615 5.28164 10.5615C6.50809 10.5615 7.63552 10.1451 8.53187 9.44439V9.85822C8.53187 10.0207 8.59536 10.1756 8.70962 10.2898L11.2413 12.821C11.4799 13.0597 11.8659 13.0597 12.1021 12.821L12.8207 12.1025C13.0594 11.8639 13.0594 11.478 12.8232 11.2393ZM5.28164 8.53042C3.48639 8.53042 2.0314 7.07822 2.0314 5.28073C2.0314 3.48579 3.48385 2.03105 5.28164 2.03105C7.07688 2.03105 8.53187 3.48325 8.53187 5.28073C8.53187 7.07568 7.07942 8.53042 5.28164 8.53042Z" fill="white"/>
</svg>
