<svg width="30" height="24" viewBox="0 0 30 24" fill="none" xmlns="http://www.w3.org/2000/svg">
<path d="M14.5544 6.10632C14.8934 5.80412 15.0271 5.32924 14.8504 4.90712C14.7406 4.65289 14.6212 4.40346 14.4876 4.16362L14.3395 3.90459C14.1963 3.66475 14.0388 3.42971 13.8716 3.20426C13.5995 2.8397 13.122 2.71978 12.6923 2.86368L11.3459 3.30979C10.835 2.88767 10.2478 2.5423 9.61754 2.30726L9.32629 0.916187C9.23558 0.470086 8.89181 0.115123 8.44301 0.0623583C8.12789 0.0191872 7.80799 0 7.48333 0H7.44991C7.12524 0 6.80534 0.0191872 6.49023 0.0575615C6.04142 0.110326 5.69765 0.470086 5.60694 0.91139L5.31569 2.30726C4.68068 2.5471 4.09819 2.88767 3.58731 3.30979L2.23612 2.86848C1.80641 2.72458 1.32896 2.8445 1.05681 3.20905C0.889705 3.4345 0.732145 3.66955 0.584135 3.90939L0.440899 4.16362C0.307212 4.40346 0.187849 4.65289 0.0780349 4.91191C-0.0986226 5.32924 0.0350641 5.80412 0.374056 6.11111L1.434 7.06088C1.38148 7.38226 1.35283 7.71804 1.35283 8.05861C1.35283 8.39918 1.38148 8.73496 1.434 9.06114L0.374056 10.0109C0.0350641 10.3131 -0.0986226 10.788 0.0780349 11.2101C0.187849 11.4643 0.307212 11.7138 0.440899 11.9584L0.584135 12.2078C0.727371 12.4525 0.88493 12.6827 1.05681 12.9082C1.32896 13.2727 1.80641 13.3926 2.23612 13.2487L3.58254 12.8026C4.09341 13.2248 4.68068 13.5701 5.31092 13.8052L5.60216 15.201C5.69288 15.6471 6.03665 16.0021 6.48545 16.0549C6.80534 16.0932 7.13001 16.1124 7.45945 16.1124C7.7889 16.1124 8.11356 16.0932 8.43346 16.0549C8.88226 16.0021 9.22603 15.6423 9.31675 15.201L9.60799 13.8052C10.243 13.5653 10.8255 13.2248 11.3364 12.8026L12.6828 13.2487C13.1125 13.3926 13.5899 13.2727 13.8621 12.9082C14.0292 12.6827 14.1868 12.4525 14.33 12.2078L14.478 11.9488C14.6117 11.709 14.7311 11.4595 14.8409 11.2053C15.0175 10.788 14.8838 10.3131 14.5449 10.0061L13.4849 9.05634C13.5374 8.73016 13.5661 8.39439 13.5661 8.05381C13.5661 7.71324 13.5374 7.37747 13.4849 7.05128L14.5449 6.10152L14.5544 6.10632ZM5.17246 8.05861C5.17246 7.44796 5.41391 6.86232 5.8437 6.43052C6.27349 5.99873 6.85641 5.75615 7.46423 5.75615C8.07204 5.75615 8.65497 5.99873 9.08476 6.43052C9.51455 6.86232 9.756 7.44796 9.756 8.05861C9.756 8.66926 9.51455 9.2549 9.08476 9.6867C8.65497 10.1185 8.07204 10.3611 7.46423 10.3611C6.85641 10.3611 6.27349 10.1185 5.8437 9.6867C5.41391 9.2549 5.17246 8.66926 5.17246 8.05861ZM23.922 23.6242C24.2228 23.9648 24.6955 24.0991 25.1157 23.9216C25.3687 23.8113 25.617 23.6914 25.8557 23.557L26.1135 23.4083C26.3523 23.2644 26.5862 23.1061 26.8106 22.9383C27.1735 22.6648 27.2928 22.1852 27.1496 21.7535L26.7056 20.4008C27.1257 19.8875 27.4695 19.2975 27.7035 18.6643L29.0928 18.3717C29.5369 18.2806 29.8902 17.9352 29.9427 17.4843C29.9809 17.1629 30 16.8367 30 16.5058C30 16.1748 29.9809 15.8486 29.9427 15.5272C29.8902 15.0763 29.5321 14.7309 29.0928 14.6398L27.7035 14.3424C27.4647 13.7044 27.1257 13.1192 26.7056 12.606L27.1496 11.2533C27.2928 10.8216 27.1735 10.3419 26.8106 10.0685C26.5862 9.90058 26.3523 9.74228 26.1135 9.59358L25.8605 9.44968C25.6218 9.31537 25.3735 9.19545 25.1157 9.08512C24.7003 8.90764 24.2276 9.04195 23.922 9.38253L22.9767 10.4474C22.652 10.3946 22.3178 10.3659 21.9788 10.3659C21.6398 10.3659 21.3056 10.3946 20.9809 10.4474L20.0356 9.38253C19.7348 9.04195 19.2621 8.90764 18.8419 9.08512C18.5889 9.19545 18.3406 9.31537 18.0971 9.44968L17.8488 9.59358C17.6053 9.73749 17.3761 9.89578 17.1517 10.0685C16.7889 10.3419 16.6695 10.8216 16.8128 11.2533L17.2568 12.606C16.8366 13.1192 16.4929 13.7092 16.2589 14.3424L14.8695 14.6302C14.4255 14.7214 14.0722 15.0667 14.0197 15.5176C13.9815 15.839 13.9624 16.1652 13.9624 16.4962C13.9624 16.8271 13.9815 17.1533 14.0197 17.4747C14.0722 17.9256 14.4303 18.271 14.8695 18.3621L16.2589 18.6547C16.4976 19.2927 16.8366 19.8779 17.2568 20.3912L16.8128 21.7439C16.6695 22.1756 16.7889 22.6552 17.1517 22.9287C17.3761 23.0966 17.6053 23.2548 17.8488 23.3987L18.1067 23.5475C18.3454 23.6818 18.5937 23.8017 18.8467 23.912C19.2621 24.0895 19.7348 23.9552 20.0403 23.6146L20.9857 22.5497C21.3104 22.6025 21.6446 22.6313 21.9836 22.6313C22.3226 22.6313 22.6568 22.6025 22.9814 22.5497L23.9268 23.6146L23.922 23.6242ZM21.9788 14.1985C22.2798 14.1985 22.5778 14.2581 22.8558 14.3738C23.1339 14.4895 23.3865 14.6591 23.5993 14.8729C23.8121 15.0867 23.9809 15.3405 24.0961 15.6199C24.2113 15.8992 24.2706 16.1986 24.2706 16.501C24.2706 16.8033 24.2113 17.1027 24.0961 17.3821C23.9809 17.6614 23.8121 17.9152 23.5993 18.129C23.3865 18.3429 23.1339 18.5125 22.8558 18.6282C22.5778 18.7439 22.2798 18.8034 21.9788 18.8034C21.6778 18.8034 21.3798 18.7439 21.1018 18.6282C20.8237 18.5125 20.5711 18.3429 20.3583 18.129C20.1455 17.9152 19.9766 17.6614 19.8615 17.3821C19.7463 17.1027 19.687 16.8033 19.687 16.501C19.687 16.1986 19.7463 15.8992 19.8615 15.6199C19.9766 15.3405 20.1455 15.0867 20.3583 14.8729C20.5711 14.6591 20.8237 14.4895 21.1018 14.3738C21.3798 14.2581 21.6778 14.1985 21.9788 14.1985Z" fill="#00F1C7"/>
</svg>
