<svg width="20" height="20" viewBox="0 0 20 20" fill="none" xmlns="http://www.w3.org/2000/svg">
<path d="M6.625 13.375V13.3863M13.375 13.375C13.375 11.5848 12.6638 9.8679 11.398 8.60203C10.1321 7.33616 8.41521 6.625 6.625 6.625M10 13.375C10 12.4799 9.64442 11.6214 9.01149 10.9885C8.37855 10.3556 7.52011 10 6.625 10M1 10C1 12.3869 1.94821 14.6761 3.63604 16.364C5.32387 18.0518 7.61305 19 10 19C12.3869 19 14.6761 18.0518 16.364 16.364C18.0518 14.6761 19 12.3869 19 10C19 7.61305 18.0518 5.32387 16.364 3.63604C14.6761 1.94821 12.3869 1 10 1C7.61305 1 5.32387 1.94821 3.63604 3.63604C1.94821 5.32387 1 7.61305 1 10Z" stroke="#A1A2A1" stroke-width="1.5" stroke-linecap="round" stroke-linejoin="round"/>
</svg>
