<svg width="42" height="33" viewBox="0 0 42 33" fill="none" xmlns="http://www.w3.org/2000/svg">
<path d="M16.7363 16.8642C17.1465 17.267 17.8113 17.267 18.2214 16.8642L18.9637 16.1352C19.3738 15.7324 19.3738 15.0795 18.9637 14.6766L16.6195 12.375L18.963 10.0727C19.3732 9.6699 19.3732 9.01699 18.963 8.61416L18.2208 7.8852C17.8106 7.48236 17.1458 7.48236 16.7357 7.8852L12.9071 11.6454C12.497 12.0482 12.497 12.7011 12.9071 13.104L16.7363 16.8642ZM23.037 16.1358L23.7792 16.8648C24.1894 17.2676 24.8542 17.2676 25.2643 16.8648L29.0929 13.1046C29.503 12.7018 29.503 12.0489 29.0929 11.646L25.2643 7.88584C24.8542 7.48301 24.1894 7.48301 23.7792 7.88584L23.037 8.61481C22.6268 9.01764 22.6268 9.67055 23.037 10.0734L25.3805 12.375L23.037 14.6773C22.6268 15.0801 22.6268 15.733 23.037 16.1358ZM40.95 26.8125H25.0386C24.99 28.0893 24.0732 28.875 22.89 28.875H18.9C17.6735 28.875 16.7331 27.749 16.7495 26.8125H1.05C0.4725 26.8125 0 27.2766 0 27.8438V28.875C0 31.1437 1.89 33 4.2 33H37.8C40.11 33 42 31.1437 42 28.875V27.8438C42 27.2766 41.5275 26.8125 40.95 26.8125ZM37.8 3.09375C37.8 1.39219 36.3825 0 34.65 0H7.35C5.6175 0 4.2 1.39219 4.2 3.09375V24.75H37.8V3.09375ZM33.6 20.625H8.4V4.125H33.6V20.625Z" fill="white"/>
</svg>
