<svg width="25" height="18" viewBox="0 0 25 18" fill="none" xmlns="http://www.w3.org/2000/svg">
<path d="M23.8502 12.426C23.9517 11.8593 23.9517 11.2806 23.8502 10.714L24.8581 10.1152C24.9753 10.0469 25.0261 9.90623 24.987 9.77361C24.7253 8.90556 24.276 8.11788 23.69 7.46684C23.6001 7.36638 23.4556 7.34226 23.3384 7.41058L22.3305 8.00938C21.9047 7.63563 21.4163 7.34628 20.8889 7.15338V5.95579C20.8889 5.81916 20.7952 5.69859 20.6662 5.67046C19.7951 5.46952 18.9082 5.47756 18.08 5.67046C17.9511 5.69859 17.8574 5.81916 17.8574 5.95579V7.15338C17.33 7.34628 16.8416 7.63563 16.4158 8.00938L15.4079 7.41058C15.2946 7.34226 15.1461 7.36638 15.0563 7.46684C14.4703 8.11788 14.021 8.90556 13.7593 9.77361C13.7202 9.90623 13.7749 10.0469 13.8882 10.1152L14.8961 10.714C14.7945 11.2806 14.7945 11.8593 14.8961 12.426L13.8882 13.0248C13.771 13.0931 13.7202 13.2338 13.7593 13.3664C14.021 14.2344 14.4703 15.0181 15.0563 15.6731C15.1461 15.7736 15.2907 15.7977 15.4079 15.7294L16.4158 15.1306C16.8416 15.5044 17.33 15.7937 17.8574 15.9866V17.1842C17.8574 17.3208 17.9511 17.4414 18.08 17.4695C18.9512 17.6705 19.838 17.6624 20.6662 17.4695C20.7952 17.4414 20.8889 17.3208 20.8889 17.1842V15.9866C21.4163 15.7937 21.9047 15.5044 22.3305 15.1306L23.3384 15.7294C23.4517 15.7977 23.6001 15.7736 23.69 15.6731C24.276 15.0221 24.7253 14.2344 24.987 13.3664C25.0261 13.2338 24.9714 13.0931 24.8581 13.0248L23.8502 12.426ZM19.377 13.5191C18.3301 13.5191 17.4823 12.643 17.4823 11.57C17.4823 10.497 18.334 9.6209 19.377 9.6209C20.4201 9.6209 21.2718 10.497 21.2718 11.57C21.2718 12.643 20.424 13.5191 19.377 13.5191ZM3.7504 7.71199C5.12945 7.71199 6.25066 6.55861 6.25066 5.13999C6.25066 3.72137 5.12945 2.56798 3.7504 2.56798C2.37134 2.56798 1.25013 3.72137 1.25013 5.13999C1.25013 6.55861 2.37134 7.71199 3.7504 7.71199ZM12.5013 8.99799C12.5755 8.99799 12.6459 8.9779 12.7201 8.97388C13.0443 8.10181 13.521 7.28198 14.1382 6.59478C14.4273 6.27328 14.8375 6.08841 15.2672 6.08841C15.5368 6.08841 15.8024 6.16075 16.0329 6.30141L16.3416 6.48627C16.3728 6.46618 16.4041 6.4501 16.4353 6.43001C16.7088 5.84327 16.8729 5.19223 16.8729 4.50101C16.8729 2.0134 14.9156 0 12.4974 0C10.0792 0 8.12586 2.00938 8.12586 4.49699C8.12586 6.98459 10.0831 8.99799 12.5013 8.99799ZM16.6111 16.8145C16.5213 16.7662 16.4314 16.71 16.3455 16.6577C16.0251 16.8506 15.7478 17.0516 15.2711 17.0516C14.8453 17.0516 14.4351 16.8667 14.1421 16.5452C13.4272 15.7495 12.8803 14.781 12.5716 13.7482C12.1536 12.3617 13.5444 11.7508 13.5796 11.7267C13.5757 11.6222 13.5757 11.5177 13.5796 11.4133L13.2709 11.2284C13.1225 11.14 12.9975 11.0275 12.8881 10.9029C12.7592 10.9109 12.6341 10.927 12.5052 10.927C11.5442 10.927 10.6457 10.6859 9.82916 10.284H9.50491C7.01637 10.284 5.00053 12.3577 5.00053 14.9136V16.071C5.00053 17.136 5.84046 18 6.87573 18H16.8533C16.7088 17.7589 16.6111 17.4856 16.6111 17.1842V16.8145ZM6.76243 9.74548C6.30926 9.28332 5.6881 8.99799 5.00053 8.99799H2.50026C1.12121 8.99799 0 10.1514 0 11.57V12.856C0 13.5673 0.558653 14.142 1.25013 14.142H3.82462C4.07074 12.2371 5.18805 10.6336 6.76243 9.74548Z" fill="white"/>
</svg>
