<svg width="18" height="18" viewBox="0 0 18 18" fill="none" xmlns="http://www.w3.org/2000/svg">
<path d="M9 0C4.02931 0 0 4.02931 0 9C0 13.9707 4.02931 18 9 18C13.9707 18 18 13.9707 18 9C18 4.02931 13.9707 0 9 0ZM11.9863 12.9774C11.8448 13.1182 11.6964 13.2659 11.5759 13.3868C11.4674 13.4956 11.3908 13.6299 11.352 13.7754C11.2972 13.9808 11.2529 14.1884 11.1789 14.3877L10.5478 16.0879C10.0484 16.1967 9.53165 16.2581 9 16.2581V15.2644C9.06133 14.8065 8.72274 13.9485 8.17875 13.4046C7.96101 13.1868 7.83871 12.8914 7.83871 12.5833V11.4217C7.83871 10.9992 7.61117 10.6109 7.24137 10.4066C6.71988 10.1181 5.9781 9.71492 5.47004 9.45907C5.05343 9.24931 4.66802 8.98222 4.32145 8.66976L4.29242 8.64363C4.04458 8.41991 3.82453 8.16721 3.63702 7.89097C3.29661 7.39125 2.7421 6.56927 2.38173 6.03508C3.1246 4.38387 4.46335 3.05782 6.12689 2.33746L6.99823 2.77331C7.38435 2.96637 7.83871 2.68585 7.83871 2.25399V1.84391C8.12867 1.7971 8.42371 1.76734 8.72383 1.75609L9.75085 2.7831C9.97766 3.00992 9.97766 3.37754 9.75085 3.60435L9.58064 3.77419L9.2054 4.14944C9.09218 4.26266 9.09218 4.44665 9.2054 4.55988L9.3756 4.73008C9.48883 4.84331 9.48883 5.0273 9.3756 5.14052L9.08528 5.43085C9.03077 5.48525 8.95689 5.51579 8.87988 5.51577H8.55363C8.47814 5.51577 8.40556 5.54516 8.35113 5.59815L7.99113 5.94835C7.947 5.99132 7.91767 6.0472 7.90736 6.10793C7.89705 6.16865 7.90631 6.23108 7.93379 6.28621L8.49956 7.4181C8.59609 7.61117 8.45564 7.83835 8.24008 7.83835H8.0354C7.96536 7.83835 7.89786 7.81294 7.84524 7.76722L7.50847 7.47472C7.43226 7.4086 7.34015 7.36346 7.24121 7.34374C7.14226 7.32401 7.03989 7.33038 6.94415 7.36222L5.81298 7.73927C5.72662 7.76807 5.65151 7.82331 5.5983 7.89717C5.54509 7.97104 5.51646 8.05977 5.51649 8.15081C5.51649 8.3152 5.6094 8.46508 5.75637 8.53875L6.15847 8.7398C6.49996 8.91073 6.87665 8.99964 7.25843 8.99964C7.6402 8.99964 8.07823 9.99 8.41972 10.1609H10.8421C11.1502 10.1609 11.4452 10.2832 11.6633 10.501L12.1602 10.9978C12.3677 11.2054 12.4843 11.487 12.4842 11.7806C12.4842 12.003 12.4401 12.2233 12.3547 12.4287C12.2692 12.6341 12.1441 12.8205 11.9863 12.9774ZM15.1331 9.6623C14.9229 9.60968 14.7397 9.48085 14.6196 9.30048L13.9671 8.32173C13.8716 8.17874 13.8206 8.01065 13.8206 7.83871C13.8206 7.66677 13.8716 7.49868 13.9671 7.35569L14.678 6.28948C14.7622 6.16355 14.8776 6.06121 15.0133 5.99371L15.4844 5.75819C15.975 6.73512 16.2581 7.83399 16.2581 9C16.2581 9.31464 16.2312 9.62274 16.192 9.92686L15.1331 9.6623Z" fill="white"/>
</svg>
